<?xml version="1.0" encoding="utf-8"?>
<!-- Generator: Adobe Illustrator 19.2.0, SVG Export Plug-In . SVG Version: 6.00 Build 0)  -->
<svg version="1.1" id="Layer_1" xmlns="http://www.w3.org/2000/svg" xmlns:xlink="http://www.w3.org/1999/xlink" x="0px" y="0px"
	 viewBox="0 0 792 612" style="enable-background:new 0 0 792 612;" xml:space="preserve">
<style type="text/css">
	.st0{fill:none;}
	.st1{fill:#E9E9E9;}
	.st2{fill:none;stroke:#E9E9E9;stroke-width:10;stroke-miterlimit:10;}
</style>
<g>
	<rect x="316" y="198" class="st0" width="198" height="86"/>
	<path class="st1" d="M362.5,258.4h-25.7l-4.9,14.6h-15.6l26.5-71.1h13.6L383,273h-15.6L362.5,258.4z M340.8,246.5h17.8l-8.9-26.6
		L340.8,246.5z"/>
	<path class="st1" d="M426.5,254.3c0-1.2-0.2-2.4-0.5-3.3c-0.4-1-1-1.9-2.1-2.8c-1-0.8-2.4-1.7-4.2-2.5c-1.8-0.8-4.1-1.7-7-2.6
		c-3.3-1-6.3-2.2-9.2-3.5c-2.9-1.3-5.4-2.8-7.6-4.6c-2.2-1.8-3.9-3.8-5.1-6.1c-1.3-2.3-1.9-5-1.9-8.1c0-3,0.6-5.7,1.9-8.1
		c1.3-2.5,3.1-4.5,5.4-6.3c2.3-1.7,5.1-3.1,8.3-4c3.2-1,6.7-1.4,10.6-1.4c3.9,0,7.5,0.5,10.7,1.6c3.2,1.1,6,2.6,8.3,4.6s4,4.3,5.3,7
		s1.9,5.6,1.9,8.8h-14.6c0-1.5-0.2-2.9-0.7-4.2s-1.2-2.4-2.2-3.3c-1-0.9-2.2-1.6-3.7-2.1c-1.5-0.5-3.2-0.8-5.2-0.8
		c-1.9,0-3.6,0.2-5,0.6c-1.4,0.4-2.6,1-3.5,1.8c-0.9,0.7-1.6,1.6-2.1,2.6c-0.5,1-0.7,2.1-0.7,3.2c0,2.3,1.2,4.3,3.6,5.9
		c2.4,1.6,5.9,3.1,10.5,4.4c3.9,1.2,7.3,2.5,10.2,4s5.4,3.1,7.4,5s3.5,3.9,4.5,6.3c1,2.3,1.5,4.9,1.5,7.9c0,3.1-0.6,5.9-1.8,8.3
		s-3,4.5-5.2,6.2c-2.2,1.7-5,3-8.1,3.9s-6.7,1.3-10.6,1.3c-2.3,0-4.7-0.2-7-0.6s-4.6-1-6.7-1.9c-2.1-0.8-4.1-1.9-5.9-3.2
		s-3.4-2.8-4.8-4.5c-1.4-1.7-2.4-3.7-3.2-5.9c-0.8-2.2-1.1-4.6-1.1-7.3h14.7c0,2.1,0.3,4,1,5.5c0.7,1.5,1.6,2.7,2.9,3.6
		s2.7,1.6,4.4,2c1.7,0.4,3.6,0.6,5.8,0.6c1.9,0,3.5-0.2,4.9-0.6c1.4-0.4,2.6-1,3.5-1.7c0.9-0.7,1.6-1.6,2-2.6
		C426.3,256.6,426.5,255.5,426.5,254.3z"/>
	<path class="st1" d="M465.8,248v25h-14.6v-71.1h27.7c4.2,0,8,0.6,11.3,1.8s6.1,2.8,8.4,4.9s4,4.6,5.2,7.5s1.8,6,1.8,9.4
		c0,3.5-0.6,6.6-1.8,9.3c-1.2,2.8-3,5.1-5.2,7.1s-5.1,3.5-8.4,4.5c-3.3,1.1-7.1,1.6-11.3,1.6H465.8z M465.8,236.1h13.1
		c2.1,0,3.9-0.3,5.4-0.8c1.5-0.5,2.8-1.2,3.7-2.2s1.7-2,2.1-3.3c0.5-1.3,0.7-2.7,0.7-4.2c0-1.5-0.2-3-0.7-4.4s-1.2-2.7-2.1-3.8
		c-1-1.1-2.2-2-3.7-2.6c-1.5-0.7-3.3-1-5.4-1h-13.1V236.1z"/>
</g>
<rect x="299" y="175.2" class="st2" width="390" height="127.7"/>
<line class="st2" x1="524.2" y1="178.2" x2="524.5" y2="299.3"/>
<path class="st1" d="M536.1,264.6c0,0,10.6-60.7,47.8-56.9h20.5c0,0,15.2,3.8,21.2,44c0,0,6.1-44.3,32.6-44.2
	c26.5,0.2,23,0.2,23,0.2s-20,53.9-55.7,56.9c0,0-34.1,5.1-37.9-28.5l-3.8-15.5l-8.3,10.6C575.6,231.2,566.5,279.8,536.1,264.6z"/>
<g>
</g>
<g>
</g>
<g>
</g>
<g>
</g>
<g>
</g>
<g>
</g>
</svg>
