<?xml version="1.0" encoding="utf-8"?>
<!-- Generator: Adobe Illustrator 19.2.0, SVG Export Plug-In . SVG Version: 6.00 Build 0)  -->
<svg version="1.1" id="Layer_1" xmlns="http://www.w3.org/2000/svg" xmlns:xlink="http://www.w3.org/1999/xlink" x="0px" y="0px"
	 viewBox="0 0 792 612" style="enable-background:new 0 0 792 612;" xml:space="preserve">
<style type="text/css">
	.st0{fill:#939598;stroke:#939598;stroke-miterlimit:10;}
	.st1{fill:none;}
	.st2{fill:#E6E7E8;}
</style>
<circle class="st0" cx="362.8" cy="231.3" r="140.3"/>
<g>
	<rect x="238" y="190.5" class="st1" width="253" height="83.5"/>
	<path class="st2" d="M244.3,265.5v-71.1h24.9c4.1,0,7.8,0.4,11.1,1.2c3.3,0.8,6,2,8.3,3.6c2.3,1.6,4,3.6,5.2,6.1
		c1.2,2.4,1.8,5.3,1.8,8.6c0,1.6-0.2,3.2-0.6,4.7c-0.4,1.5-1,2.9-1.9,4.2c-0.8,1.3-1.9,2.5-3.1,3.5c-1.3,1.1-2.8,1.9-4.5,2.6
		c2.1,0.5,3.9,1.3,5.3,2.4c1.5,1.1,2.7,2.3,3.7,3.7c1,1.4,1.7,2.9,2.1,4.6c0.4,1.6,0.7,3.3,0.7,5.1c0,6.9-2.2,12.1-6.7,15.6
		s-10.8,5.3-19,5.3H244.3z M259,224.2h10.8c3.7-0.1,6.5-0.9,8.3-2.4c1.8-1.5,2.7-3.7,2.7-6.5c0-3.2-0.9-5.5-2.8-7
		c-1.9-1.4-4.8-2.1-8.9-2.1H259V224.2z M259,234.5v19.2h12.5c1.9,0,3.5-0.2,4.9-0.7c1.4-0.5,2.5-1.1,3.4-2c0.9-0.8,1.6-1.8,2-2.9
		s0.7-2.4,0.7-3.7c0-1.5-0.2-2.9-0.6-4.1s-1-2.3-1.8-3.1c-0.8-0.9-1.9-1.5-3.2-2c-1.3-0.5-2.9-0.7-4.8-0.7H259z"/>
	<path class="st2" d="M322.8,253.7h31.1v11.8h-45.8v-71.1h14.6V253.7z"/>
	<path class="st2" d="M417.6,231.6c0,5.4-0.7,10.3-2.2,14.6c-1.5,4.3-3.5,8-6.2,11c-2.7,3-5.8,5.3-9.5,6.9s-7.8,2.4-12.3,2.4
		c-4.5,0-8.5-0.8-12.3-2.4s-6.9-3.9-9.6-6.9c-2.7-3-4.8-6.6-6.3-11c-1.5-4.3-2.2-9.2-2.2-14.6v-3.1c0-5.4,0.7-10.3,2.2-14.6
		c1.5-4.3,3.6-8,6.2-11c2.7-3,5.9-5.3,9.6-7s7.8-2.4,12.3-2.4c4.5,0,8.5,0.8,12.3,2.4s6.9,3.9,9.6,7c2.7,3,4.7,6.7,6.2,11
		c1.5,4.3,2.2,9.2,2.2,14.6V231.6z M402.7,228.3c0-7.5-1.3-13.1-4-17c-2.7-3.9-6.5-5.8-11.4-5.8c-4.9,0-8.8,1.9-11.4,5.8
		c-2.7,3.9-4,9.5-4,17v3.2c0,3.7,0.3,7,1,9.8c0.7,2.8,1.7,5.2,3,7.2c1.3,1.9,2.9,3.4,4.9,4.4c1.9,1,4.1,1.5,6.6,1.5
		c4.9,0,8.7-2,11.4-5.9s4-9.6,4-17V228.3z"/>
	<path class="st2" d="M484.5,256.5c-0.8,1-2,2.1-3.5,3.2c-1.5,1.2-3.3,2.2-5.5,3.2c-2.2,1-4.8,1.8-7.8,2.5s-6.5,1-10.4,1
		c-4.6,0-8.8-0.8-12.6-2.3s-7-3.7-9.7-6.7c-2.7-2.9-4.8-6.5-6.3-10.8c-1.5-4.3-2.2-9.1-2.2-14.6v-4.2c0-5.5,0.7-10.4,2.1-14.7
		c1.4-4.3,3.4-7.9,6-10.8s5.7-5.2,9.4-6.7c3.7-1.5,7.8-2.3,12.3-2.3c4.6,0,8.6,0.6,12,1.7c3.4,1.2,6.2,2.8,8.4,4.9
		c2.3,2.1,4,4.6,5.3,7.5c1.3,2.9,2.1,6.1,2.5,9.5h-14.3c-0.3-1.8-0.7-3.4-1.4-4.9c-0.6-1.4-1.5-2.7-2.5-3.7s-2.4-1.8-4-2.4
		c-1.6-0.6-3.5-0.8-5.6-0.8c-5,0-8.8,1.9-11.4,5.7c-2.6,3.8-3.9,9.4-3.9,16.9v4.3c0,7.5,1.4,13.1,4.2,16.9s7,5.7,12.5,5.7
		c1.8,0,3.3-0.1,4.6-0.3c1.3-0.2,2.4-0.5,3.3-0.9s1.7-0.7,2.3-1.1c0.6-0.4,1.1-0.8,1.5-1.2v-12.3h-13.3v-10.8h28V256.5z"/>
</g>
<g>
</g>
<g>
</g>
<g>
</g>
<g>
</g>
<g>
</g>
<g>
</g>
</svg>
