<?xml version="1.0" encoding="utf-8"?>
<!-- Generator: Adobe Illustrator 19.2.0, SVG Export Plug-In . SVG Version: 6.00 Build 0)  -->
<svg version="1.1" id="Layer_1" xmlns="http://www.w3.org/2000/svg" xmlns:xlink="http://www.w3.org/1999/xlink" x="0px" y="0px"
	 viewBox="0 0 792 612" style="enable-background:new 0 0 792 612;" xml:space="preserve">
<style type="text/css">
	.st0{fill:none;}
	.st1{fill:#E9E9E9;}
	.st2{fill:none;stroke:#E9E9E9;stroke-width:10;stroke-miterlimit:10;}
</style>
<g>
	<rect x="233.2" y="198" class="st0" width="205.8" height="86"/>
	<path class="st1" d="M254.2,248v25h-14.6v-71.1h27.7c4.2,0,8,0.6,11.3,1.8c3.3,1.2,6.1,2.8,8.4,4.9s4,4.6,5.2,7.5
		c1.2,2.9,1.8,6,1.8,9.4c0,3.5-0.6,6.6-1.8,9.3c-1.2,2.8-3,5.1-5.2,7.1s-5.1,3.5-8.4,4.5c-3.3,1.1-7.1,1.6-11.3,1.6H254.2z
		 M254.2,236.1h13.1c2.1,0,3.9-0.3,5.4-0.8c1.5-0.5,2.8-1.2,3.7-2.2c1-0.9,1.7-2,2.1-3.3c0.5-1.3,0.7-2.7,0.7-4.2
		c0-1.5-0.2-3-0.7-4.4c-0.5-1.4-1.2-2.7-2.1-3.8c-1-1.1-2.2-2-3.7-2.6c-1.5-0.7-3.3-1-5.4-1h-13.1V236.1z"/>
	<path class="st1" d="M361.9,273h-14.6v-30.5h-28.6V273h-14.6v-71.1h14.6v28.8h28.6v-28.8h14.6V273z"/>
	<path class="st1" d="M389.4,248v25h-14.6v-71.1h27.7c4.2,0,8,0.6,11.3,1.8c3.3,1.2,6.1,2.8,8.4,4.9s4,4.6,5.2,7.5
		c1.2,2.9,1.8,6,1.8,9.4c0,3.5-0.6,6.6-1.8,9.3c-1.2,2.8-3,5.1-5.2,7.1s-5.1,3.5-8.4,4.5c-3.3,1.1-7.1,1.6-11.3,1.6H389.4z
		 M389.4,236.1h13.1c2.1,0,3.9-0.3,5.4-0.8c1.5-0.5,2.8-1.2,3.7-2.2c1-0.9,1.7-2,2.1-3.3c0.5-1.3,0.7-2.7,0.7-4.2
		c0-1.5-0.2-3-0.7-4.4c-0.5-1.4-1.2-2.7-2.1-3.8c-1-1.1-2.2-2-3.7-2.6c-1.5-0.7-3.3-1-5.4-1h-13.1V236.1z"/>
</g>
<rect x="217" y="175.2" class="st2" width="400" height="127.7"/>
<line class="st2" x1="452.2" y1="178.2" x2="452.5" y2="299.3"/>
<g>
	<polygon class="st1" points="540.3,270.4 545.2,270.4 545.2,287.8 531.7,284.4 512.1,218.9 525,198.1 551.9,192 562.3,206.1 
		550.7,242.8 540.9,242.8 540.9,212.2 537.2,215.9 540.3,275.3 543.4,250.2 555.7,252.6 572.7,207.3 552.5,183.4 521.3,193.2 
		504.8,221.4 528.7,291.8 549.5,291.8 549.5,269.1 	"/>
	<polygon class="st1" points="526.2,214.6 526.2,220.8 517,218.9 521.3,214.6 	"/>
	<polygon class="st1" points="523.8,257.9 534.2,257.9 525.1,262.4 	"/>
	<polygon class="st1" points="526.2,266 534.2,266 527,268.5 	"/>
	<polygon class="st1" points="526.2,274 534.2,271 527,268.5 	"/>
	<path class="st1" d="M511.7,241.7l-28.9-13c0,0,29.8,20.2,34.3,20.8C521.5,250.2,511.7,241.7,511.7,241.7z"/>
</g>
<g>
</g>
<g>
</g>
<g>
</g>
<g>
</g>
<g>
</g>
<g>
</g>
</svg>
