<?xml version="1.0" encoding="utf-8"?>
<!-- Generator: Adobe Illustrator 19.2.0, SVG Export Plug-In . SVG Version: 6.00 Build 0)  -->
<svg version="1.1" id="Layer_1" xmlns="http://www.w3.org/2000/svg" xmlns:xlink="http://www.w3.org/1999/xlink" x="0px" y="0px"
	 viewBox="0 0 792 612" style="enable-background:new 0 0 792 612;" xml:space="preserve">
<style type="text/css">
	.st0{fill:#E9E9E9;stroke:#E9E9E9;stroke-miterlimit:10;}
	.st1{fill:none;}
	.st2{fill:#E9E9E9;}
	.st3{fill:none;stroke:#E9E9E9;stroke-width:10;stroke-miterlimit:10;}
</style>
<g>
	<g>
		<path class="st0" d="M755.3,239.8c0,0-17.8-14.3-2.7-25.1c15.1-10.8,19.7-17,15.1-28.6c0,0-0.8,17.4-15.4,23.2
			S738,229.4,755.3,239.8z"/>
		<path class="st0" d="M761.1,244.4c0,0,13.9-8.1,3.1-16.2c-10.8-8.1,15.1-20.9,15.1-20.9s-30.1,7-22,22
			C757.3,229.4,765,236.3,761.1,244.4z"/>
		<path class="st0" d="M739.1,241.7c0,0-20.2,7,2.6,5.8c0,0,32.9,0.1,35.2-2.8c0,0-1.5,5.9-31.7,6.7
			C715.2,252.1,719.4,244,739.1,241.7z"/>
		<path class="st0" d="M773.5,259.1l-4.1-4.1c0,0-26,7.1-33.8,0c0,0-9.4-1.2,0,4.1C735.6,259.1,754.2,264.5,773.5,259.1z"/>
		<path class="st0" d="M771.6,268l-4-2.7c0,0-30,7.8-28.5,0c0,0-16,2.3,11.1,7.3C750.2,272.6,766.3,273.2,771.6,268z"/>
		<path class="st0" d="M782.7,241.7c0,0,24.7,2.3-3.4,18.1c0,0,17.8-0.3,18.5-13.3C797.8,246.6,790.5,236.9,782.7,241.7z"/>
		<path class="st0" d="M791.6,272.6c0,0-2.5,7.7-41.4,7.3c-38.9-0.4-30.4-6.1-22.7-7.3c0,0-28.2,2.7-6.6,8.9
			C721,281.5,774.8,289.4,791.6,272.6z"/>
		<path class="st0" d="M796.3,278c0,0-12.2,11.6-64.8,7.4C731.5,285.3,783.1,293.4,796.3,278z"/>
	</g>
	<g>
		<rect x="-44.8" y="200" class="st1" width="695" height="98.4"/>
		<path class="st2" d="M-9.8,203.9H4.9v49.2c0,3.5-0.6,6.7-1.8,9.6c-1.2,2.8-2.9,5.2-5,7.2c-2.1,2-4.7,3.5-7.6,4.5
			c-2.9,1-6.1,1.6-9.4,1.6c-3.5,0-6.7-0.4-9.6-1.3c-2.9-0.9-5.4-2.2-7.5-4c-2.1-1.8-3.8-4.1-5-6.8c-1.2-2.8-1.8-6-1.8-9.8h14.7
			c0,1.9,0.2,3.5,0.6,4.8c0.4,1.3,1,2.4,1.8,3.1c0.8,0.8,1.8,1.4,2.9,1.7s2.4,0.5,3.8,0.5c2.8,0,5-1,6.7-2.9
			c1.7-1.9,2.5-4.7,2.5-8.2V203.9z"/>
		<path class="st2" d="M56.5,260.4H30.8L25.9,275H10.4l26.5-71.1h13.6L77,275H61.4L56.5,260.4z M34.8,248.5h17.8l-8.9-26.6
			L34.8,248.5z"/>
		<path class="st2" d="M106.2,257.4l16.1-53.5h16.3L113.8,275H98.5l-24.7-71.1h16.3L106.2,257.4z"/>
		<path class="st2" d="M181.7,260.4h-25.7l-4.9,14.6h-15.6l26.5-71.1h13.6l26.6,71.1h-15.6L181.7,260.4z M160,248.5h17.8l-8.9-26.6
			L160,248.5z"/>
		<path class="st2" d="M270.7,256.3c0-1.2-0.2-2.4-0.5-3.3c-0.4-1-1-1.9-2.1-2.8c-1-0.8-2.4-1.7-4.2-2.5c-1.8-0.8-4.1-1.7-7-2.6
			c-3.3-1-6.3-2.2-9.2-3.5c-2.9-1.3-5.4-2.8-7.6-4.6c-2.2-1.8-3.9-3.8-5.1-6.1c-1.3-2.3-1.9-5-1.9-8.1c0-3,0.6-5.7,1.9-8.1
			c1.3-2.5,3.1-4.5,5.4-6.3c2.3-1.7,5.1-3.1,8.3-4c3.2-1,6.7-1.4,10.6-1.4c3.9,0,7.5,0.5,10.7,1.6c3.2,1.1,6,2.6,8.3,4.6
			c2.3,2,4,4.3,5.3,7c1.2,2.7,1.9,5.6,1.9,8.8h-14.6c0-1.5-0.2-2.9-0.7-4.2c-0.5-1.3-1.2-2.4-2.2-3.3c-1-0.9-2.2-1.6-3.7-2.1
			c-1.5-0.5-3.2-0.8-5.2-0.8c-1.9,0-3.6,0.2-5,0.6c-1.4,0.4-2.6,1-3.5,1.8c-0.9,0.7-1.6,1.6-2.1,2.6c-0.5,1-0.7,2.1-0.7,3.2
			c0,2.3,1.2,4.3,3.6,5.9c2.4,1.6,5.9,3.1,10.5,4.4c3.9,1.2,7.3,2.5,10.2,4c2.9,1.5,5.4,3.1,7.4,5c2,1.9,3.5,3.9,4.5,6.3
			c1,2.3,1.5,4.9,1.5,7.9c0,3.1-0.6,5.9-1.8,8.3s-3,4.5-5.2,6.2c-2.2,1.7-5,3-8.1,3.9s-6.7,1.3-10.6,1.3c-2.3,0-4.7-0.2-7-0.6
			s-4.6-1-6.7-1.9c-2.1-0.8-4.1-1.9-5.9-3.2c-1.8-1.3-3.4-2.8-4.8-4.5c-1.4-1.7-2.4-3.7-3.2-5.9c-0.8-2.2-1.1-4.6-1.1-7.3h14.7
			c0,2.1,0.3,4,1,5.5c0.7,1.5,1.6,2.7,2.9,3.6s2.7,1.6,4.4,2c1.7,0.4,3.6,0.6,5.8,0.6c1.9,0,3.5-0.2,4.9-0.6c1.4-0.4,2.6-1,3.5-1.7
			c0.9-0.7,1.6-1.6,2-2.6C270.4,258.6,270.7,257.5,270.7,256.3z"/>
		<path class="st2" d="M338,244.2h-28.1v19h33V275h-47.7v-71.1h47.6v11.9h-32.9v16.9H338V244.2z"/>
		<path class="st2" d="M377.8,249h-11.7v26h-14.6v-71.1h26.4c4.1,0,7.8,0.5,11,1.4c3.3,0.9,6,2.3,8.3,4.1c2.2,1.8,4,4,5.2,6.7
			c1.2,2.7,1.8,5.8,1.8,9.3c0,2.6-0.3,4.9-0.9,7c-0.6,2.1-1.4,3.9-2.5,5.5c-1.1,1.6-2.4,3-4,4.2c-1.6,1.2-3.3,2.2-5.3,3.1l15.4,29.1
			v0.7h-15.7L377.8,249z M366.2,237.1H378c1.9,0,3.6-0.3,5.1-0.8c1.4-0.5,2.7-1.2,3.6-2.1c1-0.9,1.7-2,2.2-3.3
			c0.5-1.3,0.7-2.7,0.7-4.3c0-3.4-1-6-2.9-7.9c-1.9-1.9-4.8-2.9-8.8-2.9h-11.8V237.1z"/>
		<path class="st2" d="M440.7,257.4l16.1-53.5h16.3L448.4,275h-15.3l-24.7-71.1h16.3L440.7,257.4z"/>
		<path class="st2" d="M494.4,263.2h31.1V275h-45.8v-71.1h14.6V263.2z"/>
		<path class="st2" d="M576.7,244.2h-28.1v19h33V275h-47.7v-71.1h47.6v11.9h-32.9v16.9h28.1V244.2z"/>
		<path class="st2" d="M644.7,215.8h-21.8V275h-14.6v-59.2h-21.5v-11.9h57.9V215.8z"/>
	</g>
	<rect x="-67.8" y="175.2" class="st3" width="909.8" height="127.7"/>
	<line class="st3" x1="677.2" y1="178.2" x2="677.5" y2="299.3"/>
</g>
<g>
</g>
<g>
</g>
<g>
</g>
<g>
</g>
<g>
</g>
<g>
</g>
</svg>
