<?xml version="1.0" encoding="utf-8"?>
<!-- Generator: Adobe Illustrator 19.2.0, SVG Export Plug-In . SVG Version: 6.00 Build 0)  -->
<svg version="1.1" id="Layer_1" xmlns="http://www.w3.org/2000/svg" xmlns:xlink="http://www.w3.org/1999/xlink" x="0px" y="0px"
	 viewBox="0 0 960 560" style="enable-background:new 0 0 960 560;" xml:space="preserve">
<style type="text/css">
	.st0{fill:#C69C6D;stroke:#C69C6D;stroke-width:3;stroke-miterlimit:10;}
	.st1{fill:#4D4D4D;}
	.st2{fill:#1A1A1A;}
	.st3{fill:none;stroke:#000000;stroke-width:3;stroke-miterlimit:10;}
	.st4{stroke:#000000;stroke-width:3;stroke-miterlimit:10;}
	.st5{fill:none;stroke:#000000;stroke-width:2;stroke-miterlimit:10;}
</style>
<g>
	<path class="st0" d="M407.6,374.1c0,0,109.1,33,136.4,14.1c0,0,61.9-24.3,75.5-56.8c0,0,8.4-25.3,22-22.1c0,0,40.9-48.7,15.7-65.5
		c-25.1-16.7-35.6,25.6-35.6,25.6h-17.2v-43l-51.1-50.2l-145.8,47.2H360l-37.7,53.3l14.7,73.2c0,0,8.4,48.3,31.4,44
		C391.4,389.8,407.6,374.1,407.6,374.1z"/>
	<path class="st1" d="M663.6,269.9c0,0,67.1-101.8-64.8-204.4c0,0-48.2-48.3-163.4-23.2c0,0-44,4.1-62.8,4.1L406,59
		c0,0-106.8,14.6-115.2,0c0,0-23,102.6,0,117.2c0,0,44,58.9,29.3,100.8l37.7-53.1H406l145.1-47.4l50.9,49.9v44l17.7-1
		c0,0,14.8-46.2,35.5-25.6C655.2,243.8,668.8,260.5,663.6,269.9z"/>
	<path class="st2" d="M641.5,309.3c0,0,30.4,74.2-107.8,160c0,0-58.6,37.7-115.2,10.5c0,0-92.4-67.2-71.3-99.5
		c0,0,9.5,34.6,60.3-6.2c0,0,100.2,27.7,123,18.9c0,0,77.7-23.1,88.8-61.5C619.4,331.5,634.1,295.9,641.5,309.3z"/>
	<path class="st3" d="M441.6,309.3c0,0-6.3,23.9,111-32.6"/>
	<path class="st3" d="M329.8,314.4c49.4,25.1,46.9-5,46.9-5"/>
	<path class="st4" d="M519.1,292.2c0,0,3.5,44.8-25.2,49.4c-28.8,4.6-28.8-27.3-28.8-27.3L519.1,292.2z"/>
	<path class="st4" d="M363.1,324.3c0,0,2.8,18-6.6,21.9c0,0-16.4,3-16.9-27.3L363.1,324.3z"/>
	<path class="st5" d="M385.5,388.6c0,0,11.5-8.9,15.7-28.1"/>
</g>
<g>
</g>
<g>
</g>
<g>
</g>
<g>
</g>
<g>
</g>
<g>
</g>
<g>
</g>
<g>
</g>
<g>
</g>
<g>
</g>
<g>
</g>
<g>
</g>
<g>
</g>
<g>
</g>
<g>
</g>
</svg>
