<?xml version="1.0" encoding="utf-8"?>
<!-- Generator: Adobe Illustrator 19.2.0, SVG Export Plug-In . SVG Version: 6.00 Build 0)  -->
<svg version="1.1" id="Layer_1" xmlns="http://www.w3.org/2000/svg" xmlns:xlink="http://www.w3.org/1999/xlink" x="0px" y="0px"
	 viewBox="0 0 960 560" style="enable-background:new 0 0 960 560;" xml:space="preserve">
<style type="text/css">
	.st0{fill:#C69C6D;stroke:#C69C6D;stroke-width:3;stroke-miterlimit:10;}
	.st1{fill:none;stroke:#000000;stroke-width:3;stroke-miterlimit:10;}
	.st2{fill:#333333;stroke:#000000;stroke-width:3;stroke-miterlimit:10;}
	.st3{fill:none;stroke:#000000;stroke-width:2;stroke-miterlimit:10;}
	.st4{fill:#666666;}
</style>
<g>
	<path class="st0" d="M414.2,368.5c0,0,113.2,34.2,141.5,14.7c0,0,64.2-25.3,78.4-58.9c0,0,8.8-26.2,22.9-22.9
		c0,0,42.4-50.8,16.3-68.2c-26.1-17.4-36.9,26.3-36.9,26.3h-18.8v-44.1L565,163.4l-150.8,49.1h-49.4l-39.1,55.2l15.2,75.9
		c0,0,8.7,50,32.6,45.6C397.3,384.9,414.2,368.5,414.2,368.5z"/>
	<path class="st1" d="M449.5,301.3c0,0-6.5,24.8,115.2-33.8"/>
	<path class="st1" d="M333.4,306.5c51.3,26,48.7-5.2,48.7-5.2"/>
	<path class="st2" d="M529.8,283.6c0,0,3.7,46.5-26.2,51.3c-29.9,4.8-29.9-28.3-29.9-28.3L529.8,283.6z"/>
	<path class="st2" d="M368,316.9c0,0,2.9,18.7-6.9,22.7c0,0-17,3.1-17.6-28.3L368,316.9z"/>
	<path class="st3" d="M408.6,379.2c0,0,11.9-9.2,16.3-29.1"/>
	<path d="M414.2,368.5c0,0,159.1,31.1,173.3-43.1c0,0,38-140.5-34.8-98.1s-138.5,69.9-138.5,69.9l-88.5-29.7
		c0,0-40.2-16.3-33.7-58.7s33.7-81.5,33.7-81.5s273.8-272.7,365,101c0,0,11.9,148.8-70.6,181.4c0,0-75,85.7-176,78.7
		C343,481.5,343.5,369,343.5,369S384.3,410.9,414.2,368.5z"/>
	<g>
		<g>
			<path class="st4" d="M587.5,71.9c7.6,7.2,14.5,15,20.4,23.6c1.1,1.6,3.7,0.1,2.6-1.5c-6.1-8.8-13.1-16.9-20.9-24.2
				C588.2,68.4,586.1,70.5,587.5,71.9L587.5,71.9z"/>
		</g>
	</g>
	<g>
		<g>
			<path class="st4" d="M618.9,112.6c0.4,0,0.7,0,1.1,0c0.8,0,1.5-0.7,1.5-1.5c0-0.8-0.7-1.5-1.5-1.5c-0.4,0-0.7,0-1.1,0
				c-0.8,0-1.5,0.7-1.5,1.5C617.5,111.9,618.1,112.6,618.9,112.6L618.9,112.6z"/>
		</g>
	</g>
</g>
<g>
</g>
<g>
</g>
<g>
</g>
<g>
</g>
<g>
</g>
<g>
</g>
<g>
</g>
<g>
</g>
<g>
</g>
<g>
</g>
<g>
</g>
<g>
</g>
<g>
</g>
<g>
</g>
<g>
</g>
</svg>
