<?xml version="1.0" encoding="utf-8"?>
<!-- Generator: Adobe Illustrator 19.2.0, SVG Export Plug-In . SVG Version: 6.00 Build 0)  -->
<svg version="1.1" id="Layer_1" xmlns="http://www.w3.org/2000/svg" xmlns:xlink="http://www.w3.org/1999/xlink" x="0px" y="0px"
	 viewBox="0 0 960 560" style="enable-background:new 0 0 960 560;" xml:space="preserve">
<style type="text/css">
	.st0{fill:#C69C6D;stroke:#C69C6D;stroke-width:3;stroke-miterlimit:10;}
	.st1{fill:none;stroke:#000000;stroke-width:3;stroke-miterlimit:10;}
	.st2{fill:#42210B;stroke:#000000;stroke-width:3;stroke-miterlimit:10;}
	.st3{fill:none;stroke:#000000;stroke-width:2;stroke-miterlimit:10;}
	.st4{fill:#666666;}
	.st5{fill:#B3B3B3;stroke:#B3B3B3;stroke-miterlimit:10;}
	.st6{fill:#666666;stroke:#666666;stroke-miterlimit:10;}
</style>
<g>
	<path class="st0" d="M404.2,373.3c0,0,113.2,34.2,141.5,14.7c0,0,64.2-25.3,78.4-58.9c0,0,8.8-26.2,22.9-22.9
		c0,0,42.4-50.7,16.3-68c-26.1-17.4-36.9,26.5-36.9,26.5h-18.8v-44.4L555,167.8l-150.8,48.7h-49.4l-39.1,55.6l15.2,76.1
		c0,0,8.7,50.1,32.6,45.7C387.3,389.5,404.2,373.3,404.2,373.3z"/>
	<path class="st1" d="M439.5,306.1c0,0-6.5,24.8,115.2-33.8"/>
	<path class="st1" d="M323.4,311.3c51.3,26,48.7-5.2,48.7-5.2"/>
	<path class="st2" d="M519.8,288.3c0,0,3.7,46.5-26.2,51.3c-29.9,4.8-29.9-28.3-29.9-28.3L519.8,288.3z"/>
	<path class="st2" d="M358,321.6c0,0,2.9,18.7-6.9,22.7c0,0-17,3.1-17.6-28.3L358,321.6z"/>
	<path class="st3" d="M398.6,383.9c0,0,11.9-9.2,16.3-29.1"/>
	<path d="M404.2,373.3c0,0,159.1,31.1,173.3-43.1c0,0,38-140.5-34.8-98.1s-138.5,69.9-138.5,69.9l-88.5-29.7
		c0,0-40.2-16.3-33.7-58.7s33.7-81.5,33.7-81.5s273.8-272.7,365,101c0,0,11.9,148.8-70.6,181.4c0,0-75,85.7-176,78.7
		c-101-7-100.5-119.5-100.5-119.5S374.3,415.6,404.2,373.3z"/>
	<g>
		<g>
			<path class="st4" d="M577.5,76.6c7.6,7.2,14.5,15,20.4,23.6c1.1,1.6,3.7,0.1,2.6-1.5c-6.1-8.8-13.1-16.9-20.9-24.2
				C578.2,73.2,576.1,75.3,577.5,76.6L577.5,76.6z"/>
		</g>
	</g>
	<path class="st5" d="M537.2,200.6c0,0-85,70.6-138.7,71.7s-99.8-45.1-99.8-45.1L308,168c0,0,70.6,27.2,82.6,21.7
		c11.9-5.4,119.5-42.5,119.5-42.5L537.2,200.6z"/>
	<g>
		<g>
			<path d="M500.6,159.9c1.9,0,1.9-3,0-3C498.7,156.9,498.7,159.9,500.6,159.9L500.6,159.9z"/>
		</g>
	</g>
	<g>
		<g>
			<path d="M512.6,185.8c1.9,0,1.9-3,0-3C510.7,182.8,510.7,185.8,512.6,185.8L512.6,185.8z"/>
		</g>
	</g>
	<g>
		<g>
			<path d="M518.6,205.8c1.9,0,1.9-3,0-3C516.6,202.8,516.6,205.8,518.6,205.8L518.6,205.8z"/>
		</g>
	</g>
	<g>
		<g>
			<path d="M313.3,183.9c1.9,0,1.9-3,0-3C311.3,180.9,311.3,183.9,313.3,183.9L313.3,183.9z"/>
		</g>
	</g>
	<g>
		<g>
			<path d="M309.3,205.8c1.9,0,1.9-3,0-3C307.3,202.8,307.3,205.8,309.3,205.8L309.3,205.8z"/>
		</g>
	</g>
	<g>
		<g>
			<path d="M305.3,225.7c1.9,0,1.9-3,0-3C303.4,222.7,303.4,225.7,305.3,225.7L305.3,225.7z"/>
		</g>
	</g>
	<path class="st6" d="M433.7,375.9c0,0-9.8,94.9,47.5,111.2c0,0-18.6,10.9-66.4,5.5s-42.7-96.2-42.7-96.2l32-21L433.7,375.9z"/>
	<path class="st6" d="M529.1,37.5c0,0-123.9,88.4-111.1,118.6l-59.6,3.2c0,0,5.7-51,31.1-83.7C389.5,75.6,485.2,22.8,529.1,37.5z"/>
</g>
<g>
</g>
<g>
</g>
<g>
</g>
<g>
</g>
<g>
</g>
<g>
</g>
<g>
</g>
<g>
</g>
<g>
</g>
<g>
</g>
<g>
</g>
<g>
</g>
<g>
</g>
<g>
</g>
<g>
</g>
</svg>
