<?xml version="1.0" encoding="utf-8"?>
<!-- Generator: Adobe Illustrator 19.2.0, SVG Export Plug-In . SVG Version: 6.00 Build 0)  -->
<svg version="1.1" id="Layer_1" xmlns="http://www.w3.org/2000/svg" xmlns:xlink="http://www.w3.org/1999/xlink" x="0px" y="0px"
	 viewBox="0 0 960 560" style="enable-background:new 0 0 960 560;" xml:space="preserve">
<style type="text/css">
	.st0{fill:#C69C6D;stroke:#C69C6D;stroke-width:3;stroke-miterlimit:10;}
	.st1{fill:none;stroke:#000000;stroke-width:3;stroke-miterlimit:10;}
	.st2{fill:#C1272D;stroke:#000000;stroke-width:3;stroke-miterlimit:10;}
	.st3{fill:none;stroke:#000000;stroke-width:2;stroke-miterlimit:10;}
	.st4{fill:#666666;}
	.st5{fill:#B3B3B3;stroke:#B3B3B3;stroke-miterlimit:10;}
	.st6{fill:#C1272D;stroke:#C1272D;stroke-miterlimit:10;}
	.st7{fill:none;}
</style>
<g>
	<path class="st0" d="M380.2,372.5c0,0,113.2,34.2,141.5,14.7c0,0,64.2-25.3,78.4-58.9c0,0,8.8-26.2,22.9-22.9
		c0,0,42.4-50.8,16.3-68.2c-26.1-17.4-36.9,26.3-36.9,26.3h-18.8v-44.1L531,167.4l-150.8,49.1h-49.4l-39.1,55.2l15.2,75.9
		c0,0,8.7,50,32.6,45.6C363.3,388.9,380.2,372.5,380.2,372.5z"/>
	<path class="st1" d="M415.5,305.3c0,0-6.5,24.8,115.2-33.8"/>
	<path class="st1" d="M299.4,310.5c51.3,26,48.7-5.2,48.7-5.2"/>
	<path class="st2" d="M495.8,287.6c0,0,3.7,46.5-26.2,51.3s-29.9-28.3-29.9-28.3L495.8,287.6z"/>
	<path class="st2" d="M334,320.9c0,0,2.9,18.7-6.9,22.7c0,0-17,3.1-17.6-28.3L334,320.9z"/>
	<path class="st3" d="M374.6,383.2c0,0,11.9-9.2,16.3-29.1"/>
	<path d="M380.2,372.5c0,0,159.1,31.1,173.3-43.1c0,0,38-140.5-34.8-98.1s-138.5,69.9-138.5,69.9l-88.5-29.7
		c0,0-40.2-16.3-33.7-58.7s33.7-81.5,33.7-81.5s273.8-272.7,365,101c0,0,11.9,148.8-70.6,181.4c0,0-75,85.7-176,78.7
		C309,485.5,309.5,373,309.5,373S350.3,414.9,380.2,372.5z"/>
	<g>
		<g>
			<path class="st4" d="M553.5,75.9c7.6,7.2,14.5,15,20.4,23.6c1.1,1.6,3.7,0.1,2.6-1.5c-6.1-8.8-13.1-16.9-20.9-24.2
				C554.2,72.4,552.1,74.5,553.5,75.9L553.5,75.9z"/>
		</g>
	</g>
	<g>
		<g>
			<path class="st4" d="M584.9,116.6c0.4,0,0.7,0,1.1,0c0.8,0,1.5-0.7,1.5-1.5c0-0.8-0.7-1.5-1.5-1.5c-0.4,0-0.7,0-1.1,0
				c-0.8,0-1.5,0.7-1.5,1.5C583.5,115.9,584.1,116.6,584.9,116.6L584.9,116.6z"/>
		</g>
	</g>
	<path class="st5" d="M513.2,199.8c0,0-85,70.6-138.7,71.7s-99.8-45.1-99.8-45.1l9.2-59.2c0,0,70.6,27.2,82.6,21.7
		c11.9-5.4,119.5-42.5,119.5-42.5L513.2,199.8z"/>
	<g>
		<g>
			<path d="M476,161.9c1.9,0,1.9-3,0-3C474,158.9,474,161.9,476,161.9L476,161.9z"/>
		</g>
	</g>
	<g>
		<g>
			<path d="M487.9,179.8c1.9,0,1.9-3,0-3C486,176.8,486,179.8,487.9,179.8L487.9,179.8z"/>
		</g>
	</g>
	<g>
		<g>
			<path d="M497.9,199.8c1.9,0,1.9-3,0-3C496,196.8,496,199.8,497.9,199.8L497.9,199.8z"/>
		</g>
	</g>
	<g>
		<g>
			<path d="M288.6,181.8c1.9,0,1.9-3,0-3C286.7,178.8,286.7,181.8,288.6,181.8L288.6,181.8z"/>
		</g>
	</g>
	<g>
		<g>
			<path d="M284.6,207.7c1.9,0,1.9-3,0-3C282.7,204.7,282.7,207.7,284.6,207.7L284.6,207.7z"/>
		</g>
	</g>
	<g>
		<g>
			<path d="M282.6,225.7c1.9,0,1.9-3,0-3C280.7,222.7,280.7,225.7,282.6,225.7L282.6,225.7z"/>
		</g>
	</g>
	<polygon class="st6" points="636.2,166.4 586,249 647.7,199.7 	"/>
	<polygon class="st6" points="655.5,232.4 583.8,287.6 655.5,271.5 	"/>
	<path class="st6" d="M430.1,490.9l-47.4-94.7c0,0-16.3,77.5-8.1,88.3C374.6,484.5,404.2,497.4,430.1,490.9z"/>
	<polygon class="st6" points="447.8,490.9 415.4,431.5 487.9,480.4 	"/>
	<polygon class="st6" points="357.5,475.7 357.5,417.1 334,452.4 	"/>
	<path class="st6" d="M497.9,35.4L369.2,164l-23.1-77.3C346.1,86.8,448.9,20.4,497.9,35.4z"/>
	<g>
		<rect x="326.7" y="196.5" class="st7" width="77.7" height="75.7"/>
		<path d="M329.8,208.4c-0.4-0.2-0.6-0.7-0.6-1.5c0.2-0.8,0.3-1.3,0.5-1.7c0.1-0.4,0.3-0.7,0.7-1.1c0.7-0.9,1.7-1.7,2.9-2.4
			c1.1-0.7,2.4-1.4,3.9-2c1.4-0.6,2.9-1.1,4.3-1.5c1.5-0.4,2.8-0.7,3.9-0.9c0.1,0,0.3-0.1,0.5-0.1c0.2-0.1,0.4-0.1,0.7-0.1
			c1,0,1.5,0.5,1.5,1.4c0,0.4-0.1,0.9-0.3,1.3c-0.3,0.8-1,1.5-2,2c-0.1,1.1-0.2,2.8-0.4,5.2s-0.3,4.9-0.3,7.6c0,3.5,0.2,6.5,0.7,8.9
			c0.2,1.7,0.8,3.5,1.9,5.2c1.1,1.8,1.9,2.8,2.6,3c0.3,0.1,0.5,0.1,0.7,0.1c0.9,0,1.7-0.3,2.5-1c0.7-0.6,1.3-1.3,1.9-2.2
			c0.5-0.9,1-1.9,1.3-3.1c0.3-1.1,0.6-2.2,0.9-3.3c0.2-1.1,0.3-2,0.4-2.9c0.1-1.6,0.3-2.4,0.8-2.4c0.1,0,0.3,0.1,0.6,0.2
			c0.3,0.1,0.5,0.2,0.7,0.2c1.8,0.9,3.7,2.3,5.8,4.4c2.1,2,3.9,4,5.4,6.1c0.1,0.2,0.3,0.3,0.6,0.3c0.3,0,0.5-0.1,0.8-0.4
			c0.3-0.3,0.5-0.6,0.7-0.9c1-1,1.7-2,2-3.1c0.3-1.1,0.6-2.5,0.9-4.3c0.4-3.9,0.7-7.3,0.7-10.1c0-2.3-0.1-4-0.3-5.2
			s-0.3-1.9-0.4-2.3c-1.2-0.6-1.9-1.4-2.1-2.4c-0.1-0.2-0.1-0.4-0.2-0.8c-0.1-0.4-0.1-0.7-0.1-1.1c0-0.9,0.4-1.3,1.1-1.3
			c0.4,0,1.3,0,2.7,0.1c1.1,0.1,2.3,0.3,3.5,0.4c1.3,0.2,2.4,0.5,3.5,0.9c1.1,0.4,2,1,2.7,1.6c0.7,0.7,1,1.5,1,2.4
			c0,1.7-0.1,3.9-0.4,6.5c-0.3,2.7-0.7,5.3-1.1,8c-0.5,2.6-0.9,4.6-1.3,5.8c0,0.2-0.4,1.5-0.9,3.9c-0.6,2.4-1.2,4.9-2,7.7
			c-0.7,2.8-1.3,4.9-1.7,6.3c-0.4,1.5-0.7,2.6-1,3.4c-0.7,2.4-1.6,4.6-2.4,6.4c-0.9,1.9-1.9,3.4-2.9,4.5c-1.1,1.1-2.3,1.7-3.6,1.7
			c-0.6,0-0.9-0.2-1-0.6c0.1-0.6,0.1-1.6,0.1-3.1c-0.1-1.4-0.3-3-0.6-4.7c-0.3-1.7-0.7-3.4-1.2-5.1c-0.6-1.7-1.3-3.2-2.2-4.6
			c-0.9-1.4-2-2.5-3.2-3.4c-0.3-0.2-0.7-0.5-1.2-0.8s-1-0.6-1.4-0.8c-0.4-0.2-0.8-0.3-1.3-0.3c-0.4,0-0.9,0.8-1.7,2.3
			c-0.2,0.4-0.7,1.4-1.6,3.3c-0.9,1.8-2,4.1-3.2,6.7c-1.3,2.7-2.2,4.7-2.9,6c-0.6,1.3-1.2,2.5-1.6,3.4c-0.7,1.1-1.1,1.7-1.4,1.7
			c-1.4,0-2.6-0.4-3.5-1.3c-1-0.8-1.8-1.9-2.4-3.3c-0.3-0.5-0.8-2.1-1.6-4.7c-0.8-2.6-1.3-4.4-1.5-5.3c-0.6-2.4-1.2-4.8-1.8-7.1
			c-0.6-2.3-1.2-4.9-1.7-7.7c-0.6-2.8-1-5.7-1.4-8.6c-0.4-2.9-0.5-5.7-0.5-8.4c-0.1,0-0.6-0.3-1.3-0.7S329.9,208.5,329.8,208.4z"/>
	</g>
</g>
<g>
</g>
<g>
</g>
<g>
</g>
<g>
</g>
<g>
</g>
<g>
</g>
<g>
</g>
<g>
</g>
<g>
</g>
<g>
</g>
<g>
</g>
<g>
</g>
<g>
</g>
<g>
</g>
<g>
</g>
</svg>
