<?xml version="1.0" encoding="utf-8"?>
<!-- Generator: Adobe Illustrator 19.2.0, SVG Export Plug-In . SVG Version: 6.00 Build 0)  -->
<svg version="1.1" id="Layer_1" xmlns="http://www.w3.org/2000/svg" xmlns:xlink="http://www.w3.org/1999/xlink" x="0px" y="0px"
	 viewBox="0 0 960 560" style="enable-background:new 0 0 960 560;" xml:space="preserve">
<style type="text/css">
	.st0{fill:#C69C6D;stroke:#C69C6D;stroke-width:3;stroke-miterlimit:10;}
	.st1{fill:#4D4D4D;}
	.st2{fill:#1A1A1A;}
	.st3{fill:none;stroke:#000000;stroke-width:3;stroke-miterlimit:10;}
	.st4{stroke:#000000;stroke-width:3;stroke-miterlimit:10;}
	.st5{fill:none;stroke:#000000;stroke-width:2;stroke-miterlimit:10;}
	.st6{fill:#333333;stroke:#000000;stroke-width:3;stroke-miterlimit:10;}
	.st7{fill:#666666;}
	.st8{fill:#C1272D;stroke:#C1272D;stroke-miterlimit:10;}
	.st9{fill:#42210B;stroke:#000000;stroke-width:3;stroke-miterlimit:10;}
	.st10{fill:#B3B3B3;stroke:#B3B3B3;stroke-miterlimit:10;}
	.st11{fill:#666666;stroke:#666666;stroke-miterlimit:10;}
	.st12{fill:#C1272D;stroke:#000000;stroke-width:3;stroke-miterlimit:10;}
	.st13{fill:none;}
</style>
<g>
	<path class="st0" d="M86.8,229.5c0,0,52.1,15.8,65.1,6.8c0,0,29.6-11.6,36.1-27.1c0,0,4-12.1,10.5-10.6c0,0,19.5-23.3,7.5-31.3
		s-17,12.2-17,12.2h-8.5V159l-24.3-24l-69.5,22.5H64L46,183l7,35c0,0,4,23.1,15,21C79,237,86.8,229.5,86.8,229.5z"/>
	<path class="st1" d="M209,179.8c0,0,32.1-48.6-30.9-97.6c0,0-23-23.1-78-11.1c0,0-21,2-30,2l16,6c0,0-51,7-55,0c0,0-11,49,0,56
		c0,0,21,28.2,14,48.2L63,158h23l69-22.8l24,23.8v21l8.8-0.5c0,0,7.2-22.1,17.1-12.2C204.9,167.3,211.5,175.2,209,179.8z"/>
	<path class="st2" d="M198.5,198.6c0,0,14.5,35.4-51.5,76.4c0,0-28,18-55,5c0,0-44.1-32.1-34.1-47.5c0,0,4.6,16.5,28.8-3
		c0,0,47.9,13.2,58.8,9c0,0,37.1-11,42.4-29.4C187.9,209.1,194.9,192.1,198.5,198.6z"/>
	<path class="st3" d="M103,198.6c0,0-3,11.4,53-15.6"/>
	<path class="st3" d="M49.6,201c23.6,12,22.4-2.4,22.4-2.4"/>
	<path class="st4" d="M140,190.4c0,0,1.7,21.4-12.1,23.6s-13.7-13-13.7-13L140,190.4z"/>
	<path class="st4" d="M65.5,205.7c0,0,1.3,8.6-3.2,10.4c0,0-7.8,1.4-8.1-13L65.5,205.7z"/>
	<path class="st5" d="M76.2,236.4c0,0,5.5-4.2,7.5-13.4"/>
</g>
<g>
	<path class="st0" d="M310.8,229.5c0,0,52.1,15.8,65.1,6.8c0,0,29.6-11.6,36.1-27.1c0,0,4-12.1,10.5-10.6c0,0,19.5-23.3,7.5-31.3
		s-17,12.2-17,12.2h-8.5V159l-24.3-24l-69.5,22.5H288L270,183l7,35c0,0,4,23.1,15,21C303,237,310.8,229.5,310.8,229.5z"/>
	<path class="st3" d="M327,198.6c0,0-3,11.4,53-15.6"/>
	<path class="st3" d="M273.6,201c23.6,12,22.4-2.4,22.4-2.4"/>
	<path class="st6" d="M364,190.4c0,0,1.7,21.4-12.1,23.6c-13.7,2.2-13.7-13-13.7-13L364,190.4z"/>
	<path class="st6" d="M289.5,205.7c0,0,1.3,8.6-3.2,10.4c0,0-7.8,1.4-8.1-13L289.5,205.7z"/>
	<path class="st5" d="M308.2,234.4c0,0,5.5-4.2,7.5-13.4"/>
	<path d="M310.8,229.5c0,0,73.3,14.3,79.8-19.8c0,0,17.5-64.7-16-45.2s-63.8,32.2-63.8,32.2L270,183c0,0-18.5-7.5-15.5-27
		s15.5-37.5,15.5-37.5S396-7,438,165c0,0,5.5,68.5-32.5,83.5c0,0-34.5,39.4-81,36.2c-46.5-3.2-46.2-55-46.2-55S297,249,310.8,229.5z
		"/>
	<g>
		<g>
			<path class="st7" d="M390,93.5c3.5,3.2,6.6,6.8,9.3,10.7c1.1,1.6,3.7,0.1,2.6-1.5c-2.9-4.1-6.1-7.9-9.7-11.3
				C390.7,90.1,388.6,92.2,390,93.5L390,93.5z"/>
		</g>
	</g>
	<g>
		<g>
			<path class="st7" d="M405,112.5c0.2,0,0.3,0,0.5,0c0.8,0,1.5-0.7,1.5-1.5c0-0.8-0.7-1.5-1.5-1.5c-0.2,0-0.3,0-0.5,0
				c-0.8,0-1.5,0.7-1.5,1.5C403.5,111.8,404.2,112.5,405,112.5L405,112.5z"/>
		</g>
	</g>
</g>
<g>
	<g>
		<path class="st7" d="M650,112.5c0.2,0,0.3,0,0.5,0c0.8,0,1.5-0.7,1.5-1.5c0-0.8-0.7-1.5-1.5-1.5c-0.2,0-0.3,0-0.5,0
			c-0.8,0-1.5,0.7-1.5,1.5C648.5,111.8,649.2,112.5,650,112.5L650,112.5z"/>
	</g>
</g>
<polygon class="st8" points="918.4,194.6 897.6,198.1 915,209.7 "/>
<g>
	<path class="st0" d="M555.8,229.5c0,0,52.1,15.8,65.1,6.8c0,0,29.6-11.6,36.1-27.1c0,0,4-12.1,10.5-10.6c0,0,19.5-23.3,7.5-31.3
		s-17,12.2-17,12.2h-8.5V159l-24.3-24l-69.5,22.5H533L515,183l7,35c0,0,4,23.1,15,21C548,237,555.8,229.5,555.8,229.5z"/>
	<path class="st3" d="M572,198.6c0,0-3,11.4,53-15.6"/>
	<path class="st3" d="M518.6,201c23.6,12,22.4-2.4,22.4-2.4"/>
	<path class="st9" d="M609,190.4c0,0,1.7,21.4-12.1,23.6c-13.7,2.2-13.7-13-13.7-13L609,190.4z"/>
	<path class="st9" d="M534.5,205.7c0,0,1.3,8.6-3.2,10.4c0,0-7.8,1.4-8.1-13L534.5,205.7z"/>
	<path class="st5" d="M553.2,234.4c0,0,5.5-4.2,7.5-13.4"/>
	<path d="M555.8,229.5c0,0,73.3,14.3,79.8-19.8c0,0,17.5-64.7-16-45.2s-63.8,32.2-63.8,32.2L515,183c0,0-18.5-7.5-15.5-27
		s15.5-37.5,15.5-37.5S641-7,683,165c0,0,5.5,68.5-32.5,83.5c0,0-34.5,39.4-81,36.2c-46.5-3.2-46.2-55-46.2-55S542,249,555.8,229.5z
		"/>
	<g>
		<g>
			<path class="st7" d="M635,93.5c3.5,3.2,6.6,6.8,9.3,10.7c1.1,1.6,3.7,0.1,2.6-1.5c-2.9-4.1-6.1-7.9-9.7-11.3
				C635.7,90.1,633.6,92.2,635,93.5L635,93.5z"/>
		</g>
	</g>
	<path class="st10" d="M617,150c0,0-39.1,32.5-63.8,33c-24.7,0.5-45.9-20.8-45.9-20.8l4.3-27.3c0,0,32.5,12.5,38,10s55-19.6,55-19.6
		L617,150z"/>
	<g>
		<g>
			<path d="M600.2,132.1c1.9,0,1.9-3,0-3C598.2,129.1,598.2,132.1,600.2,132.1L600.2,132.1z"/>
		</g>
	</g>
	<g>
		<g>
			<path d="M605.7,144c1.9,0,1.9-3,0-3C603.7,141,603.7,144,605.7,144L605.7,144z"/>
		</g>
	</g>
	<g>
		<g>
			<path d="M608.4,153.2c1.9,0,1.9-3,0-3C606.5,150.2,606.5,153.2,608.4,153.2L608.4,153.2z"/>
		</g>
	</g>
	<g>
		<g>
			<path d="M513.9,143.1c1.9,0,1.9-3,0-3C512,140.1,512,143.1,513.9,143.1L513.9,143.1z"/>
		</g>
	</g>
	<g>
		<g>
			<path d="M512.1,153.2c1.9,0,1.9-3,0-3C510.2,150.2,510.1,153.2,512.1,153.2L512.1,153.2z"/>
		</g>
	</g>
	<g>
		<g>
			<path d="M510.2,162.4c1.9,0,1.9-3,0-3C508.3,159.4,508.3,162.4,510.2,162.4L510.2,162.4z"/>
		</g>
	</g>
	<path class="st11" d="M569.4,230.7c0,0-4.5,43.7,21.9,51.2c0,0-8.6,5-30.6,2.5c-22-2.5-19.7-44.3-19.7-44.3l14.7-9.7L569.4,230.7z"
		/>
	<path class="st11" d="M613.2,74.9c0,0-57,40.7-51.1,54.6l-27.4,1.5c0,0,2.6-23.5,14.3-38.5C549,92.5,593,68.2,613.2,74.9z"/>
</g>
<g>
	<path class="st0" d="M792.8,225.5c0,0,52.1,15.8,65.1,6.8c0,0,29.6-11.6,36.1-27.1c0,0,4-12.1,10.5-10.6c0,0,19.5-23.3,7.5-31.3
		s-17,12.2-17,12.2h-8.5V155l-24.3-24l-69.5,22.5H770L752,179l7,35c0,0,4,23.1,15,21C785,233,792.8,225.5,792.8,225.5z"/>
	<path class="st3" d="M809,194.6c0,0-3,11.4,53-15.6"/>
	<path class="st3" d="M755.6,197c23.6,12,22.4-2.4,22.4-2.4"/>
	<path class="st12" d="M846,186.4c0,0,1.7,21.4-12.1,23.6c-13.7,2.2-13.7-13-13.7-13L846,186.4z"/>
	<path class="st12" d="M771.5,201.7c0,0,1.3,8.6-3.2,10.4c0,0-7.8,1.4-8.1-13L771.5,201.7z"/>
	<path class="st5" d="M790.2,230.4c0,0,5.5-4.2,7.5-13.4"/>
	<path d="M792.8,225.5c0,0,73.3,14.3,79.8-19.8c0,0,17.5-64.7-16-45.2s-63.8,32.2-63.8,32.2L752,179c0,0-18.5-7.5-15.5-27
		s15.5-37.5,15.5-37.5S878-11,920,161c0,0,5.5,68.5-32.5,83.5c0,0-34.5,39.4-81,36.2c-46.5-3.2-46.2-55-46.2-55S779,245,792.8,225.5
		z"/>
	<g>
		<g>
			<path class="st7" d="M872,89.5c3.5,3.2,6.6,6.8,9.3,10.7c1.1,1.6,3.7,0.1,2.6-1.5c-2.9-4.1-6.1-7.9-9.7-11.3
				C872.7,86.1,870.6,88.2,872,89.5L872,89.5z"/>
		</g>
	</g>
	<g>
		<g>
			<path class="st7" d="M887,108.5c0.2,0,0.3,0,0.5,0c0.8,0,1.5-0.7,1.5-1.5c0-0.8-0.7-1.5-1.5-1.5c-0.2,0-0.3,0-0.5,0
				c-0.8,0-1.5,0.7-1.5,1.5C885.5,107.8,886.2,108.5,887,108.5L887,108.5z"/>
		</g>
	</g>
	<path class="st10" d="M854,146c0,0-39.1,32.5-63.8,33c-24.7,0.5-45.9-20.8-45.9-20.8l4.3-27.3c0,0,32.5,12.5,38,10s55-19.6,55-19.6
		L854,146z"/>
	<g>
		<g>
			<path d="M836.9,129.4c1.9,0,1.9-3,0-3C834.9,126.4,834.9,129.4,836.9,129.4L836.9,129.4z"/>
		</g>
	</g>
	<g>
		<g>
			<path d="M842.4,137.6c1.9,0,1.9-3,0-3C840.4,134.6,840.4,137.6,842.4,137.6L842.4,137.6z"/>
		</g>
	</g>
	<g>
		<g>
			<path d="M846.9,146.8c1.9,0,1.9-3,0-3C845,143.8,845,146.8,846.9,146.8L846.9,146.8z"/>
		</g>
	</g>
	<g>
		<g>
			<path d="M750.6,138.5c1.9,0,1.9-3,0-3C748.7,135.5,748.7,138.5,750.6,138.5L750.6,138.5z"/>
		</g>
	</g>
	<g>
		<g>
			<path d="M748.8,150.5c1.9,0,1.9-3,0-3C746.8,147.5,746.8,150.5,748.8,150.5L748.8,150.5z"/>
		</g>
	</g>
	<g>
		<g>
			<path d="M747.9,158.7c1.9,0,1.9-3,0-3C745.9,155.7,745.9,158.7,747.9,158.7L747.9,158.7z"/>
		</g>
	</g>
	<polygon class="st8" points="910.6,130.6 887.5,168.6 915.9,145.9 	"/>
	<polygon class="st8" points="919.5,161 886.5,186.4 919.5,179 	"/>
	<path class="st8" d="M815.8,280l-21.8-43.6c0,0-7.5,35.7-3.7,40.6C790.2,277,803.8,283,815.8,280z"/>
	<polygon class="st8" points="823.9,280 809,252.6 842.4,275.1 	"/>
	<polygon class="st8" points="782.5,273 782.5,246 771.7,262.2 	"/>
	<path class="st8" d="M846.9,70.3l-59.2,59.2L777.1,94C777.1,94,824.4,63.4,846.9,70.3z"/>
	<g>
		<rect x="768.2" y="144.5" class="st13" width="35.8" height="34.9"/>
		<path d="M769.6,150c-0.2-0.1-0.3-0.3-0.3-0.7c0.1-0.4,0.2-0.6,0.2-0.8c0.1-0.2,0.2-0.3,0.3-0.5c0.3-0.4,0.8-0.8,1.3-1.1
			c0.5-0.3,1.1-0.6,1.8-0.9c0.7-0.3,1.3-0.5,2-0.7c0.7-0.2,1.3-0.3,1.8-0.4c0,0,0.1,0,0.2-0.1c0.1,0,0.2,0,0.3,0
			c0.5,0,0.7,0.2,0.7,0.6c0,0.2,0,0.4-0.1,0.6c-0.1,0.4-0.4,0.7-0.9,0.9c0,0.5-0.1,1.3-0.2,2.4c-0.1,1.1-0.1,2.3-0.1,3.5
			c0,1.6,0.1,3,0.3,4.1c0.1,0.8,0.4,1.6,0.9,2.4c0.5,0.8,0.9,1.3,1.2,1.4c0.1,0,0.2,0.1,0.3,0.1c0.4,0,0.8-0.2,1.2-0.5
			c0.3-0.3,0.6-0.6,0.9-1s0.4-0.9,0.6-1.4c0.2-0.5,0.3-1,0.4-1.5c0.1-0.5,0.1-0.9,0.2-1.3c0-0.7,0.2-1.1,0.4-1.1
			c0.1,0,0.2,0,0.3,0.1s0.2,0.1,0.3,0.1c0.8,0.4,1.7,1.1,2.7,2s1.8,1.9,2.5,2.8c0.1,0.1,0.2,0.1,0.3,0.1c0.1,0,0.2-0.1,0.4-0.2
			c0.1-0.1,0.3-0.3,0.3-0.4c0.5-0.4,0.8-0.9,0.9-1.4c0.1-0.5,0.3-1.1,0.4-2c0.2-1.8,0.3-3.3,0.3-4.7c0-1,0-1.8-0.1-2.4
			s-0.1-0.9-0.2-1.1c-0.5-0.3-0.9-0.6-1-1.1c0-0.1-0.1-0.2-0.1-0.4c0-0.2-0.1-0.3-0.1-0.5c0-0.4,0.2-0.6,0.5-0.6
			c0.2,0,0.6,0,1.3,0.1c0.5,0.1,1.1,0.1,1.6,0.2c0.6,0.1,1.1,0.2,1.6,0.4c0.5,0.2,0.9,0.4,1.3,0.7c0.3,0.3,0.5,0.7,0.5,1.1
			c0,0.8-0.1,1.8-0.2,3c-0.1,1.2-0.3,2.5-0.5,3.7c-0.2,1.2-0.4,2.1-0.6,2.7c0,0.1-0.2,0.7-0.4,1.8c-0.3,1.1-0.6,2.3-0.9,3.5
			c-0.3,1.3-0.6,2.2-0.8,2.9c-0.2,0.7-0.3,1.2-0.4,1.6c-0.3,1.1-0.7,2.1-1.1,3c-0.4,0.9-0.9,1.6-1.3,2.1c-0.5,0.5-1.1,0.8-1.6,0.8
			c-0.3,0-0.4-0.1-0.5-0.3c0-0.3,0.1-0.7,0.1-1.4c0-0.7-0.1-1.4-0.3-2.2c-0.1-0.8-0.3-1.5-0.6-2.3c-0.3-0.8-0.6-1.5-1-2.1
			c-0.4-0.6-0.9-1.2-1.5-1.6c-0.1-0.1-0.3-0.2-0.5-0.4c-0.2-0.2-0.4-0.3-0.6-0.4c-0.2-0.1-0.4-0.1-0.6-0.1c-0.2,0-0.4,0.3-0.8,1
			c-0.1,0.2-0.3,0.7-0.7,1.5c-0.4,0.8-0.9,1.9-1.5,3.1c-0.6,1.2-1,2.2-1.3,2.8c-0.3,0.6-0.5,1.1-0.7,1.6c-0.3,0.5-0.5,0.8-0.7,0.8
			c-0.6,0-1.2-0.2-1.6-0.6c-0.4-0.4-0.8-0.9-1.1-1.5c-0.1-0.2-0.4-1-0.7-2.2s-0.6-2-0.7-2.4c-0.3-1.1-0.5-2.2-0.8-3.3
			c-0.3-1.1-0.5-2.3-0.8-3.6s-0.5-2.6-0.6-4s-0.2-2.6-0.2-3.8c-0.1,0-0.3-0.1-0.6-0.3S769.6,150,769.6,150z"/>
	</g>
</g>
<g>
	<rect x="25.3" y="327.6" class="st13" width="180.7" height="32.6"/>
	<path d="M30.8,328.7c0.3-0.1,0.7-0.2,1.2-0.3c0.5-0.1,1-0.2,1.6-0.3s1.1-0.2,1.4-0.2c0.5-0.1,0.9-0.1,1.1-0.1s0.4,0,0.6-0.1
		c0.3,0,0.5,0,0.6,0.1s0.2,0.3,0.2,0.6c0,0.4,0,0.9-0.1,1.3c-0.1,0.5-0.2,0.9-0.4,1.3s-0.5,0.7-0.8,0.8v17.8h8.2
		c-0.1-0.2-0.1-0.4-0.1-0.6c0-0.1,0-0.2,0-0.3s0-0.3,0.1-0.4s0.1-0.2,0.1-0.3c0.1-0.4,0.2-0.7,0.5-0.9c0.2-0.2,0.5-0.3,0.9-0.4
		c0.3-0.1,0.7-0.1,1-0.1c0.7,0,1.3,0.1,1.7,0.3c0.4,0.2,0.8,0.5,1.1,0.9c0.3,0.4,0.4,0.9,0.6,1.4c0,0.3,0.1,0.8,0.1,1.3s0,1.1,0,1.5
		c0,0.5-0.1,0.9-0.2,1.4c0,0.1-0.1,0.3-0.2,0.4c-0.1,0.2-0.2,0.3-0.3,0.4s-0.2,0.2-0.3,0.4c-0.1,0.1-0.4,0.3-0.8,0.4
		s-0.8,0.1-1.2,0.1H26.4c0-0.5,0.1-0.8,0.3-0.9c0-0.2,0.2-0.5,0.6-0.9c0.4-0.4,0.8-0.8,1.2-1.1s0.8-0.7,1-0.8v-19.7
		c-0.7-0.5-1-1-1-1.5c0-0.3,0.2-0.6,0.7-0.9C29.6,329.2,30.1,328.9,30.8,328.7z"/>
	<path d="M76,332.2c-1.2,0.1-2.2,0.2-3,0.2c-0.6,0-1,0-1.1-0.1c-0.1,0-0.2-0.1-0.3-0.1s-0.3-0.1-0.4-0.2s-0.2-0.1-0.3-0.1
		c-0.1-0.1-0.5-0.2-1.2-0.4s-1-0.3-1.2-0.3H58.2v7.2h10.3l-0.2,1.9h-10l0,5.3c0,0.4,0.2,0.9,0.5,1.2c0.3,0.4,0.8,0.6,1.3,0.7
		c0.7,0.1,1.9,0.1,3.4,0.2s2.9,0.1,4.2,0.1c1.4,0,2.3-0.1,2.8-0.2c0.2-0.1,0.4-0.1,0.8-0.2s0.7-0.2,0.9-0.3s0.5-0.2,0.7-0.3
		c0.2-0.1,0.4-0.3,0.6-0.4c0.1-0.1,0.2-0.2,0.5-0.3s0.7-0.2,1.2-0.2c0.8,0,1.7,0.2,2.6,0.5c0.2,0.1,0.3,0.3,0.3,0.5
		c0,0.1-0.1,0.3-0.2,0.5c0,0.1-0.2,0.3-0.4,0.7s-0.4,0.6-0.4,0.7c-0.2,0.5-0.4,0.9-0.4,1.2c0,0.3,0.1,0.6,0.3,0.8
		c0.1,0.2,0.3,0.6,0.7,1.2c0.2,0.2,0.2,0.5,0.2,0.9s-0.1,0.6-0.4,0.8c-0.3,0.3-1,0.6-2,0.8s-2.2,0.3-3.7,0.4s-3,0.1-4.6,0.1
		c-1.7,0-3.3,0-4.9-0.1c-1.6-0.1-3-0.2-4.2-0.3s-1.8-0.2-2-0.3c-1.8-0.8-2.9-1.5-3.4-2.3c-0.3-0.3-0.4-0.7-0.4-1.2
		c0-0.2,0-0.4,0.1-0.5c0-0.1,0.2-0.3,0.4-0.5s0.6-0.4,1-0.5v-21.9h24.1c0,0.3-0.1,0.7-0.3,1.1c-0.6,1.1-1.1,1.9-1.3,2.4
		C76.2,331.4,76.1,331.8,76,332.2z"/>
	<path d="M99.7,327.3c0.8,0,1.5,0.1,2.1,0.2s1.2,0.2,1.5,0.4c0.8,0.4,1.4,0.8,1.7,1.1c0.4,0.5,0.7,1.2,0.7,2.1
		c0,0.2-0.2,0.7-0.5,1.5c0,0.1-0.3,0.7-0.8,1.9c-0.5,1.2-1.1,2.6-1.8,4.1s-1.2,2.8-1.7,3.9c-0.4,1-0.7,1.7-0.8,1.9
		c-0.2,0.4-0.4,0.9-0.8,1.7c-0.4,0.7-1,1.9-1.8,3.6s-1.5,3-1.8,3.7c-0.4,0.8-0.7,1.5-1,2.1c-0.2,0.4-0.4,0.7-0.5,0.8
		c-0.1,0.1-0.2,0.2-0.3,0.2c-0.1,0-0.2,0-0.3-0.1s-0.2-0.2-0.2-0.3s-0.2-0.3-0.4-0.6c-0.1-0.3-0.5-0.8-1-1.8c-0.5-0.9-1.2-2.1-2-3.5
		s-1.5-2.6-2-3.5c-0.5-0.9-1-1.7-1.4-2.5c-0.3-0.6-0.6-1.3-1-2c-0.4-0.8-1-2-1.8-3.7c-0.8-1.7-1.4-3.1-2-4.2
		c-0.5-1.1-0.9-1.9-1.1-2.3c-0.4-0.9-0.5-1.5-0.5-1.8s0.2-0.6,0.6-0.8c0.2-0.2,0.7-0.4,1.3-0.6c0.6-0.2,1.3-0.4,2-0.6
		c0.7-0.2,1.5-0.3,2.3-0.4c0.8-0.1,1.4-0.2,1.9-0.2c0.2,0,0.4,0,0.5,0.1s0.2,0.2,0.2,0.4c0,0.3-0.1,0.5-0.2,0.7
		c-0.1,0.4-0.4,0.7-0.9,0.9c-0.6,0.3-0.9,0.9-0.9,1.8c0,0.6,0.1,1.3,0.4,2.1c0.3,0.8,0.6,1.6,0.9,2.4c0.4,0.8,0.5,1.2,0.6,1.3
		c0.1,0.3,0.5,1.3,1.3,3.1s1.5,3.3,2.2,4.7c0.7,1.4,1.3,2.2,1.7,2.3c0.4,0,0.8-0.4,1.4-1.3c0.5-0.9,1-1.9,1.5-3
		c0.5-1.1,1-2.3,1.5-3.7s0.8-2,0.8-2.1c0.2-0.3,0.4-0.7,0.6-1.3s0.5-1.3,0.7-2.1c0.2-0.8,0.3-1.5,0.3-2.1c0-0.9-0.2-1.6-0.7-1.9
		c-0.5-0.3-0.9-0.6-1-1c-0.1-0.2-0.1-0.5-0.1-0.8c0-0.3,0.1-0.4,0.2-0.5C99.2,327.3,99.4,327.3,99.7,327.3z"/>
	<path d="M131.4,332.2c-1.2,0.1-2.2,0.2-3,0.2c-0.6,0-1,0-1.1-0.1c-0.1,0-0.2-0.1-0.3-0.1s-0.3-0.1-0.4-0.2s-0.2-0.1-0.3-0.1
		c-0.1-0.1-0.5-0.2-1.2-0.4s-1-0.3-1.2-0.3h-10.3v7.2H124l-0.2,1.9h-10l0,5.3c0,0.4,0.2,0.9,0.5,1.2c0.3,0.4,0.8,0.6,1.3,0.7
		c0.7,0.1,1.9,0.1,3.4,0.2s2.9,0.1,4.2,0.1c1.4,0,2.3-0.1,2.8-0.2c0.2-0.1,0.4-0.1,0.8-0.2s0.7-0.2,0.9-0.3s0.5-0.2,0.7-0.3
		c0.2-0.1,0.4-0.3,0.6-0.4c0.1-0.1,0.2-0.2,0.5-0.3s0.7-0.2,1.2-0.2c0.8,0,1.7,0.2,2.6,0.5c0.2,0.1,0.3,0.3,0.3,0.5
		c0,0.1-0.1,0.3-0.2,0.5c0,0.1-0.2,0.3-0.4,0.7s-0.4,0.6-0.4,0.7c-0.2,0.5-0.4,0.9-0.4,1.2c0,0.3,0.1,0.6,0.3,0.8
		c0.1,0.2,0.3,0.6,0.7,1.2c0.2,0.2,0.2,0.5,0.2,0.9s-0.1,0.6-0.4,0.8c-0.3,0.3-1,0.6-2,0.8s-2.2,0.3-3.7,0.4s-3,0.1-4.6,0.1
		c-1.7,0-3.3,0-4.9-0.1c-1.6-0.1-3-0.2-4.2-0.3s-1.8-0.2-2-0.3c-1.8-0.8-2.9-1.5-3.4-2.3c-0.3-0.3-0.4-0.7-0.4-1.2
		c0-0.2,0-0.4,0.1-0.5c0-0.1,0.2-0.3,0.4-0.5s0.6-0.4,1-0.5v-21.9h24.1c0,0.3-0.1,0.7-0.3,1.1c-0.6,1.1-1.1,1.9-1.3,2.4
		C131.7,331.4,131.5,331.8,131.4,332.2z"/>
	<path d="M140.1,328.7c0.3-0.1,0.7-0.2,1.2-0.3c0.5-0.1,1-0.2,1.6-0.3s1.1-0.2,1.4-0.2c0.5-0.1,0.9-0.1,1.1-0.1s0.4,0,0.6-0.1
		c0.3,0,0.5,0,0.6,0.1s0.2,0.3,0.2,0.6c0,0.4,0,0.9-0.1,1.3c-0.1,0.5-0.2,0.9-0.4,1.3s-0.5,0.7-0.8,0.8v17.8h8.2
		c-0.1-0.2-0.1-0.4-0.1-0.6c0-0.1,0-0.2,0-0.3s0-0.3,0.1-0.4s0.1-0.2,0.1-0.3c0.1-0.4,0.2-0.7,0.5-0.9c0.2-0.2,0.5-0.3,0.9-0.4
		c0.3-0.1,0.7-0.1,1-0.1c0.7,0,1.3,0.1,1.7,0.3c0.4,0.2,0.8,0.5,1.1,0.9c0.3,0.4,0.4,0.9,0.6,1.4c0,0.3,0.1,0.8,0.1,1.3s0,1.1,0,1.5
		c0,0.5-0.1,0.9-0.2,1.4c0,0.1-0.1,0.3-0.2,0.4c-0.1,0.2-0.2,0.3-0.3,0.4s-0.2,0.2-0.3,0.4c-0.1,0.1-0.4,0.3-0.8,0.4
		s-0.8,0.1-1.2,0.1h-20.8c0-0.5,0.1-0.8,0.3-0.9c0-0.2,0.2-0.5,0.6-0.9c0.4-0.4,0.8-0.8,1.2-1.1s0.8-0.7,1-0.8v-19.7
		c-0.7-0.5-1-1-1-1.5c0-0.3,0.2-0.6,0.7-0.9C138.9,329.2,139.5,328.9,140.1,328.7z"/>
	<path d="M187,347v-15.4c-0.4-0.2-0.7-0.4-0.8-0.6s-0.2-0.5-0.2-0.9c0-0.3,0.2-0.6,0.7-0.8c0.2-0.1,0.7-0.4,1.6-0.7
		c0.5-0.2,1.2-0.4,2.1-0.6s1.7-0.3,2.1-0.3c0.8,0,1.2,0.4,1.2,1.1c0,0.5-0.2,0.9-0.6,1.2v24.4c0,0.3-0.1,0.5-0.3,0.6
		c-0.2,0.1-0.3,0.2-0.5,0.2c-0.7,0-1.4-0.1-2.1-0.1c-0.3,0-0.7-0.4-1.3-1.1c-0.5-0.7-1-1.5-1.4-2.7s-0.6-2.3-0.6-3.6
		C187,347.4,187,347.1,187,347z"/>
</g>
<g>
	<rect x="259.7" y="326.3" class="st13" width="194.6" height="32.6"/>
	<path d="M265.2,327.4c0.3-0.1,0.7-0.2,1.2-0.3c0.5-0.1,1-0.2,1.6-0.3s1.1-0.2,1.4-0.2c0.5-0.1,0.9-0.1,1.1-0.1s0.4,0,0.6-0.1
		c0.3,0,0.5,0,0.6,0.1s0.2,0.3,0.2,0.6c0,0.4,0,0.9-0.1,1.3c-0.1,0.5-0.2,0.9-0.4,1.3s-0.5,0.7-0.8,0.8v17.8h8.2
		c-0.1-0.2-0.1-0.4-0.1-0.6c0-0.1,0-0.2,0-0.3s0-0.3,0.1-0.4s0.1-0.2,0.1-0.3c0.1-0.4,0.2-0.7,0.5-0.9c0.2-0.2,0.5-0.3,0.9-0.4
		c0.3-0.1,0.7-0.1,1-0.1c0.7,0,1.3,0.1,1.7,0.3c0.4,0.2,0.8,0.5,1.1,0.9c0.3,0.4,0.4,0.9,0.6,1.4c0,0.3,0.1,0.8,0.1,1.3s0,1.1,0,1.5
		c0,0.5-0.1,0.9-0.2,1.4c0,0.1-0.1,0.3-0.2,0.4c-0.1,0.2-0.2,0.3-0.3,0.4s-0.2,0.2-0.3,0.4c-0.1,0.1-0.4,0.3-0.8,0.4
		s-0.8,0.1-1.2,0.1h-20.8c0-0.5,0.1-0.8,0.3-0.9c0-0.2,0.2-0.5,0.6-0.9c0.4-0.4,0.8-0.8,1.2-1.1s0.8-0.7,1-0.8v-19.7
		c-0.7-0.5-1-1-1-1.5c0-0.3,0.2-0.6,0.7-0.9C264,327.8,264.5,327.6,265.2,327.4z"/>
	<path d="M310.4,330.8c-1.2,0.1-2.2,0.2-3,0.2c-0.6,0-1,0-1.1-0.1c-0.1,0-0.2-0.1-0.3-0.1s-0.3-0.1-0.4-0.2s-0.2-0.1-0.3-0.1
		c-0.1-0.1-0.5-0.2-1.2-0.4s-1-0.3-1.2-0.3h-10.3v7.2h10.3l-0.2,1.9h-10l0,5.3c0,0.4,0.2,0.9,0.5,1.2c0.3,0.4,0.8,0.6,1.3,0.7
		c0.7,0.1,1.9,0.1,3.4,0.2s2.9,0.1,4.2,0.1c1.4,0,2.3-0.1,2.8-0.2c0.2-0.1,0.4-0.1,0.8-0.2s0.7-0.2,0.9-0.3s0.5-0.2,0.7-0.3
		c0.2-0.1,0.4-0.3,0.6-0.4c0.1-0.1,0.2-0.2,0.5-0.3s0.7-0.2,1.2-0.2c0.8,0,1.7,0.2,2.6,0.5c0.2,0.1,0.3,0.3,0.3,0.5
		c0,0.1-0.1,0.3-0.2,0.5c0,0.1-0.2,0.3-0.4,0.7s-0.4,0.6-0.4,0.7c-0.2,0.5-0.4,0.9-0.4,1.2c0,0.3,0.1,0.6,0.3,0.8
		c0.1,0.2,0.3,0.6,0.7,1.2c0.2,0.2,0.2,0.5,0.2,0.9s-0.1,0.6-0.4,0.8c-0.3,0.3-1,0.6-2,0.8s-2.2,0.3-3.7,0.4s-3,0.1-4.6,0.1
		c-1.7,0-3.3,0-4.9-0.1c-1.6-0.1-3-0.2-4.2-0.3s-1.8-0.2-2-0.3c-1.8-0.8-2.9-1.5-3.4-2.3c-0.3-0.3-0.4-0.7-0.4-1.2
		c0-0.2,0-0.4,0.1-0.5c0-0.1,0.2-0.3,0.4-0.5s0.6-0.4,1-0.5v-21.9h24.1c0,0.3-0.1,0.7-0.3,1.1c-0.6,1.1-1.1,1.9-1.3,2.4
		C310.7,330,310.5,330.4,310.4,330.8z"/>
	<path d="M334.2,325.9c0.8,0,1.5,0.1,2.1,0.2s1.2,0.2,1.5,0.4c0.8,0.4,1.4,0.8,1.7,1.1c0.4,0.5,0.7,1.2,0.7,2.1
		c0,0.2-0.2,0.7-0.5,1.5c0,0.1-0.3,0.7-0.8,1.9c-0.5,1.2-1.1,2.6-1.8,4.1s-1.2,2.8-1.7,3.9c-0.4,1-0.7,1.7-0.8,1.9
		c-0.2,0.4-0.4,0.9-0.8,1.7c-0.4,0.7-1,1.9-1.8,3.6s-1.5,3-1.8,3.7c-0.4,0.8-0.7,1.5-1,2.1c-0.2,0.4-0.4,0.7-0.5,0.8
		c-0.1,0.1-0.2,0.2-0.3,0.2c-0.1,0-0.2,0-0.3-0.1s-0.2-0.2-0.2-0.3s-0.2-0.3-0.4-0.6c-0.1-0.3-0.5-0.8-1-1.8c-0.5-0.9-1.2-2.1-2-3.5
		s-1.5-2.6-2-3.5c-0.5-0.9-1-1.7-1.4-2.5c-0.3-0.6-0.6-1.3-1-2c-0.4-0.8-1-2-1.8-3.7c-0.8-1.7-1.4-3.1-2-4.2
		c-0.5-1.1-0.9-1.9-1.1-2.3c-0.4-0.9-0.5-1.5-0.5-1.8s0.2-0.6,0.6-0.8c0.2-0.2,0.7-0.4,1.3-0.6c0.6-0.2,1.3-0.4,2-0.6
		c0.7-0.2,1.5-0.3,2.3-0.4c0.8-0.1,1.4-0.2,1.9-0.2c0.2,0,0.4,0,0.5,0.1s0.2,0.2,0.2,0.4c0,0.3-0.1,0.5-0.2,0.7
		c-0.1,0.4-0.4,0.7-0.9,0.9c-0.6,0.3-0.9,0.9-0.9,1.8c0,0.6,0.1,1.3,0.4,2.1c0.3,0.8,0.6,1.6,0.9,2.4c0.4,0.8,0.5,1.2,0.6,1.3
		c0.1,0.3,0.5,1.3,1.3,3.1s1.5,3.3,2.2,4.7c0.7,1.4,1.3,2.2,1.7,2.3c0.4,0,0.8-0.4,1.4-1.3c0.5-0.9,1-1.9,1.5-3
		c0.5-1.1,1-2.3,1.5-3.7s0.8-2,0.8-2.1c0.2-0.3,0.4-0.7,0.6-1.3s0.5-1.3,0.7-2.1c0.2-0.8,0.3-1.5,0.3-2.1c0-0.9-0.2-1.6-0.7-1.9
		c-0.5-0.3-0.9-0.6-1-1c-0.1-0.2-0.1-0.5-0.1-0.8c0-0.3,0.1-0.4,0.2-0.5C333.7,326,333.9,325.9,334.2,325.9z"/>
	<path d="M365.9,330.8c-1.2,0.1-2.2,0.2-3,0.2c-0.6,0-1,0-1.1-0.1c-0.1,0-0.2-0.1-0.3-0.1s-0.3-0.1-0.4-0.2s-0.2-0.1-0.3-0.1
		c-0.1-0.1-0.5-0.2-1.2-0.4s-1-0.3-1.2-0.3h-10.3v7.2h10.3l-0.2,1.9h-10l0,5.3c0,0.4,0.2,0.9,0.5,1.2c0.3,0.4,0.8,0.6,1.3,0.7
		c0.7,0.1,1.9,0.1,3.4,0.2s2.9,0.1,4.2,0.1c1.4,0,2.3-0.1,2.8-0.2c0.2-0.1,0.4-0.1,0.8-0.2s0.7-0.2,0.9-0.3s0.5-0.2,0.7-0.3
		c0.2-0.1,0.4-0.3,0.6-0.4c0.1-0.1,0.2-0.2,0.5-0.3s0.7-0.2,1.2-0.2c0.8,0,1.7,0.2,2.6,0.5c0.2,0.1,0.3,0.3,0.3,0.5
		c0,0.1-0.1,0.3-0.2,0.5c0,0.1-0.2,0.3-0.4,0.7s-0.4,0.6-0.4,0.7c-0.2,0.5-0.4,0.9-0.4,1.2c0,0.3,0.1,0.6,0.3,0.8
		c0.1,0.2,0.3,0.6,0.7,1.2c0.2,0.2,0.2,0.5,0.2,0.9s-0.1,0.6-0.4,0.8c-0.3,0.3-1,0.6-2,0.8s-2.2,0.3-3.7,0.4s-3,0.1-4.6,0.1
		c-1.7,0-3.3,0-4.9-0.1c-1.6-0.1-3-0.2-4.2-0.3s-1.8-0.2-2-0.3c-1.8-0.8-2.9-1.5-3.4-2.3c-0.3-0.3-0.4-0.7-0.4-1.2
		c0-0.2,0-0.4,0.1-0.5c0-0.1,0.2-0.3,0.4-0.5s0.6-0.4,1-0.5v-21.9H368c0,0.3-0.1,0.7-0.3,1.1c-0.6,1.1-1.1,1.9-1.3,2.4
		C366.1,330,366,330.4,365.9,330.8z"/>
	<path d="M374.6,327.4c0.3-0.1,0.7-0.2,1.2-0.3c0.5-0.1,1-0.2,1.6-0.3s1.1-0.2,1.4-0.2c0.5-0.1,0.9-0.1,1.1-0.1s0.4,0,0.6-0.1
		c0.3,0,0.5,0,0.6,0.1s0.2,0.3,0.2,0.6c0,0.4,0,0.9-0.1,1.3c-0.1,0.5-0.2,0.9-0.4,1.3s-0.5,0.7-0.8,0.8v17.8h8.2
		c-0.1-0.2-0.1-0.4-0.1-0.6c0-0.1,0-0.2,0-0.3s0-0.3,0.1-0.4s0.1-0.2,0.1-0.3c0.1-0.4,0.2-0.7,0.5-0.9c0.2-0.2,0.5-0.3,0.9-0.4
		c0.3-0.1,0.7-0.1,1-0.1c0.7,0,1.3,0.1,1.7,0.3c0.4,0.2,0.8,0.5,1.1,0.9c0.3,0.4,0.4,0.9,0.6,1.4c0,0.3,0.1,0.8,0.1,1.3s0,1.1,0,1.5
		c0,0.5-0.1,0.9-0.2,1.4c0,0.1-0.1,0.3-0.2,0.4c-0.1,0.2-0.2,0.3-0.3,0.4s-0.2,0.2-0.3,0.4c-0.1,0.1-0.4,0.3-0.8,0.4
		s-0.8,0.1-1.2,0.1h-20.8c0-0.5,0.1-0.8,0.3-0.9c0-0.2,0.2-0.5,0.6-0.9c0.4-0.4,0.8-0.8,1.2-1.1s0.8-0.7,1-0.8v-19.7
		c-0.7-0.5-1-1-1-1.5c0-0.3,0.2-0.6,0.7-0.9C373.4,327.8,373.9,327.6,374.6,327.4z"/>
	<path d="M441.8,347.9c0.4-0.1,0.7-0.3,1-0.5c0.3-0.2,0.5-0.4,0.7-0.5c0.2-0.2,0.4-0.3,0.5-0.4c0.1-0.1,0.2-0.1,0.4-0.1
		c0.4,0,0.6,0.3,0.6,0.8c0,0.2,0,0.4,0,0.8c0,0.7-0.1,1.4-0.2,2.2s-0.3,1.4-0.6,1.9c-0.1,0.1-0.1,0.3-0.3,0.4
		c-0.1,0.1-0.3,0.3-0.4,0.4c-0.1,0.1-0.3,0.3-0.4,0.4c-0.3,0.3-0.7,0.5-1.1,0.5h-19.8c-1.3-0.2-2-1.1-2-2.8c0-0.4,0-0.7,0.1-1.1
		s0.1-0.6,0.2-0.8c0.1-0.4,0.4-1.1,0.9-2.1c0.5-1,1.3-2.3,2.5-3.8s2.8-3.2,5-5.1c2.1-1.8,4.8-3.5,7.8-5c0,0,0,0-0.1,0.1
		c0,0,0-0.1,0.1-0.3s0.1-0.4,0.1-0.5c0-0.4-0.2-0.6-0.5-0.7c-1.3-0.6-2.7-0.9-4.3-0.9c-1,0-2.2,0.1-3.5,0.4
		c-1.3,0.3-2.7,0.8-4.3,1.4c-0.1,0-0.4,0.2-1,0.6c-0.6,0.4-1,0.6-1.4,0.8c-0.4,0-0.6-0.2-0.6-0.5c0-0.2,0-0.4,0.1-0.6
		c0.4-1.4,1-2.6,1.8-3.5c0.8-0.9,1.6-1.5,2.5-2c0.9-0.4,1.6-0.7,2.3-0.7c0.2-0.1,0.6-0.2,1-0.3c0.5-0.1,1.2-0.2,2.1-0.3
		s1.9-0.1,2.9-0.1c1.9,0,3.9,0.1,6.1,0.4c0.2,0,0.6,0.1,1.2,0.3c0.6,0.2,1.2,0.5,1.8,0.8c0.6,0.3,1.2,0.8,1.6,1.3
		c0.1,0.1,0.3,0.3,0.4,0.4c0.1,0.1,0.3,0.3,0.4,0.6c0.1,0.2,0.2,0.5,0.2,0.7c0,0.2-0.1,0.4-0.2,0.7c-4.1,3.5-7.2,6.2-9.2,8.2
		c-2.1,2-3.4,3.4-4.1,4.4c-0.7,1-1,1.9-1.1,2.6c0,0.5,0.3,1,0.9,1.3c0.6,0.3,1.1,0.5,1.6,0.5c0.3,0,0.7,0,1.4,0.1s1.4,0,2.2,0
		C439.1,348.3,440.7,348.2,441.8,347.9z"/>
</g>
<g>
	<rect x="502.8" y="328.3" class="st13" width="190.7" height="32.6"/>
	<path d="M508.3,329.4c0.3-0.1,0.7-0.2,1.2-0.3c0.5-0.1,1-0.2,1.6-0.3s1.1-0.2,1.4-0.2c0.5-0.1,0.9-0.1,1.1-0.1s0.4,0,0.6-0.1
		c0.3,0,0.5,0,0.6,0.1s0.2,0.3,0.2,0.6c0,0.4,0,0.9-0.1,1.3c-0.1,0.5-0.2,0.9-0.4,1.3s-0.5,0.7-0.8,0.8v17.8h8.2
		c-0.1-0.2-0.1-0.4-0.1-0.6c0-0.1,0-0.2,0-0.3s0-0.3,0.1-0.4s0.1-0.2,0.1-0.3c0.1-0.4,0.2-0.7,0.5-0.9c0.2-0.2,0.5-0.3,0.9-0.4
		c0.3-0.1,0.7-0.1,1-0.1c0.7,0,1.3,0.1,1.7,0.3c0.4,0.2,0.8,0.5,1.1,0.9c0.3,0.4,0.4,0.9,0.6,1.4c0,0.3,0.1,0.8,0.1,1.3s0,1.1,0,1.5
		c0,0.5-0.1,0.9-0.2,1.4c0,0.1-0.1,0.3-0.2,0.4c-0.1,0.2-0.2,0.3-0.3,0.4s-0.2,0.2-0.3,0.4c-0.1,0.1-0.4,0.3-0.8,0.4
		s-0.8,0.1-1.2,0.1h-20.8c0-0.5,0.1-0.8,0.3-0.9c0-0.2,0.2-0.5,0.6-0.9c0.4-0.4,0.8-0.8,1.2-1.1s0.8-0.7,1-0.8v-19.7
		c-0.7-0.5-1-1-1-1.5c0-0.3,0.2-0.6,0.7-0.9C507.1,329.8,507.7,329.6,508.3,329.4z"/>
	<path d="M553.5,332.9c-1.2,0.1-2.2,0.2-3,0.2c-0.6,0-1,0-1.1-0.1c-0.1,0-0.2-0.1-0.3-0.1s-0.3-0.1-0.4-0.2s-0.2-0.1-0.3-0.1
		c-0.1-0.1-0.5-0.2-1.2-0.4s-1-0.3-1.2-0.3h-10.3v7.2h10.3l-0.2,1.9h-10l0,5.3c0,0.4,0.2,0.9,0.5,1.2c0.3,0.4,0.8,0.6,1.3,0.7
		c0.7,0.1,1.9,0.1,3.4,0.2s2.9,0.1,4.2,0.1c1.4,0,2.3-0.1,2.8-0.2c0.2-0.1,0.4-0.1,0.8-0.2s0.7-0.2,0.9-0.3s0.5-0.2,0.7-0.3
		c0.2-0.1,0.4-0.3,0.6-0.4c0.1-0.1,0.2-0.2,0.5-0.3s0.7-0.2,1.2-0.2c0.8,0,1.7,0.2,2.6,0.5c0.2,0.1,0.3,0.3,0.3,0.5
		c0,0.1-0.1,0.3-0.2,0.5c0,0.1-0.2,0.3-0.4,0.7s-0.4,0.6-0.4,0.7c-0.2,0.5-0.4,0.9-0.4,1.2c0,0.3,0.1,0.6,0.3,0.8
		c0.1,0.2,0.3,0.6,0.7,1.2c0.2,0.2,0.2,0.5,0.2,0.9s-0.1,0.6-0.4,0.8c-0.3,0.3-1,0.6-2,0.8s-2.2,0.3-3.7,0.4s-3,0.1-4.6,0.1
		c-1.7,0-3.3,0-4.9-0.1c-1.6-0.1-3-0.2-4.2-0.3s-1.8-0.2-2-0.3c-1.8-0.8-2.9-1.5-3.4-2.3c-0.3-0.3-0.4-0.7-0.4-1.2
		c0-0.2,0-0.4,0.1-0.5c0-0.1,0.2-0.3,0.4-0.5s0.6-0.4,1-0.5v-21.9h24.1c0,0.3-0.1,0.7-0.3,1.1c-0.6,1.1-1.1,1.9-1.3,2.4
		C553.8,332.1,553.6,332.5,553.5,332.9z"/>
	<path d="M577.3,328c0.8,0,1.5,0.1,2.1,0.2c0.7,0.1,1.2,0.2,1.5,0.4c0.8,0.4,1.4,0.8,1.7,1.1c0.4,0.5,0.7,1.2,0.7,2.1
		c0,0.2-0.2,0.7-0.5,1.5c0,0.1-0.3,0.7-0.8,1.9c-0.5,1.2-1.1,2.6-1.8,4.1c-0.7,1.6-1.2,2.8-1.7,3.9s-0.7,1.7-0.8,1.9
		c-0.2,0.4-0.4,0.9-0.8,1.7s-1,1.9-1.8,3.6c-0.8,1.7-1.5,3-1.8,3.7c-0.4,0.8-0.7,1.5-1,2.1c-0.2,0.4-0.4,0.7-0.5,0.8
		c-0.1,0.1-0.2,0.2-0.3,0.2c-0.1,0-0.2,0-0.3-0.1s-0.2-0.2-0.2-0.3s-0.2-0.3-0.4-0.6c-0.1-0.3-0.5-0.8-1-1.8c-0.5-0.9-1.2-2.1-2-3.5
		c-0.8-1.4-1.5-2.6-2-3.5c-0.5-0.9-1-1.7-1.4-2.5c-0.3-0.6-0.6-1.3-1-2c-0.4-0.8-1-2-1.8-3.7c-0.8-1.7-1.4-3.1-2-4.2
		s-0.9-1.9-1.1-2.3c-0.4-0.9-0.5-1.5-0.5-1.8s0.2-0.6,0.6-0.8c0.2-0.2,0.7-0.4,1.3-0.6s1.3-0.4,2-0.6c0.7-0.2,1.5-0.3,2.3-0.4
		c0.8-0.1,1.4-0.2,1.9-0.2c0.2,0,0.4,0,0.5,0.1s0.2,0.2,0.2,0.4c0,0.3-0.1,0.5-0.2,0.7c-0.1,0.4-0.4,0.7-0.9,0.9
		c-0.6,0.3-0.9,0.9-0.9,1.8c0,0.6,0.1,1.3,0.4,2.1c0.3,0.8,0.6,1.6,0.9,2.4c0.4,0.8,0.5,1.2,0.6,1.3c0.1,0.3,0.5,1.3,1.3,3.1
		c0.7,1.7,1.5,3.3,2.2,4.7c0.7,1.4,1.3,2.2,1.7,2.3c0.4,0,0.8-0.4,1.4-1.3c0.5-0.9,1-1.9,1.5-3c0.5-1.1,1-2.3,1.5-3.7
		c0.5-1.3,0.8-2,0.8-2.1c0.2-0.3,0.4-0.7,0.6-1.3s0.5-1.3,0.7-2.1s0.3-1.5,0.3-2.1c0-0.9-0.2-1.6-0.7-1.9c-0.5-0.3-0.9-0.6-1-1
		c-0.1-0.2-0.1-0.5-0.1-0.8c0-0.3,0.1-0.4,0.2-0.5C576.8,328,577,328,577.3,328z"/>
	<path d="M609,332.9c-1.2,0.1-2.2,0.2-3,0.2c-0.6,0-1,0-1.1-0.1c-0.1,0-0.2-0.1-0.3-0.1s-0.3-0.1-0.4-0.2s-0.2-0.1-0.3-0.1
		c-0.1-0.1-0.5-0.2-1.2-0.4s-1-0.3-1.2-0.3h-10.3v7.2h10.3l-0.2,1.9h-10l0,5.3c0,0.4,0.2,0.9,0.5,1.2c0.3,0.4,0.8,0.6,1.3,0.7
		c0.7,0.1,1.9,0.1,3.4,0.2s2.9,0.1,4.2,0.1c1.4,0,2.3-0.1,2.8-0.2c0.2-0.1,0.4-0.1,0.8-0.2s0.7-0.2,0.9-0.3s0.5-0.2,0.7-0.3
		c0.2-0.1,0.4-0.3,0.6-0.4c0.1-0.1,0.2-0.2,0.5-0.3s0.7-0.2,1.2-0.2c0.8,0,1.7,0.2,2.6,0.5c0.2,0.1,0.3,0.3,0.3,0.5
		c0,0.1-0.1,0.3-0.2,0.5c0,0.1-0.2,0.3-0.4,0.7s-0.4,0.6-0.4,0.7c-0.2,0.5-0.4,0.9-0.4,1.2c0,0.3,0.1,0.6,0.3,0.8
		c0.1,0.2,0.3,0.6,0.7,1.2c0.2,0.2,0.2,0.5,0.2,0.9s-0.1,0.6-0.4,0.8c-0.3,0.3-1,0.6-2,0.8s-2.2,0.3-3.7,0.4s-3,0.1-4.6,0.1
		c-1.7,0-3.3,0-4.9-0.1c-1.6-0.1-3-0.2-4.2-0.3s-1.8-0.2-2-0.3c-1.8-0.8-2.9-1.5-3.4-2.3c-0.3-0.3-0.4-0.7-0.4-1.2
		c0-0.2,0-0.4,0.1-0.5c0-0.1,0.2-0.3,0.4-0.5s0.6-0.4,1-0.5v-21.9h24.1c0,0.3-0.1,0.7-0.3,1.1c-0.6,1.1-1.1,1.9-1.3,2.4
		C609.2,332.1,609.1,332.5,609,332.9z"/>
	<path d="M617.7,329.4c0.3-0.1,0.7-0.2,1.2-0.3c0.5-0.1,1-0.2,1.6-0.3s1.1-0.2,1.4-0.2c0.5-0.1,0.9-0.1,1.1-0.1s0.4,0,0.6-0.1
		c0.3,0,0.5,0,0.6,0.1s0.2,0.3,0.2,0.6c0,0.4,0,0.9-0.1,1.3c-0.1,0.5-0.2,0.9-0.4,1.3s-0.5,0.7-0.8,0.8v17.8h8.2
		c-0.1-0.2-0.1-0.4-0.1-0.6c0-0.1,0-0.2,0-0.3s0-0.3,0.1-0.4s0.1-0.2,0.1-0.3c0.1-0.4,0.2-0.7,0.5-0.9c0.2-0.2,0.5-0.3,0.9-0.4
		c0.3-0.1,0.7-0.1,1-0.1c0.7,0,1.3,0.1,1.7,0.3c0.4,0.2,0.8,0.5,1.1,0.9c0.3,0.4,0.4,0.9,0.6,1.4c0,0.3,0.1,0.8,0.1,1.3s0,1.1,0,1.5
		c0,0.5-0.1,0.9-0.2,1.4c0,0.1-0.1,0.3-0.2,0.4c-0.1,0.2-0.2,0.3-0.3,0.4s-0.2,0.2-0.3,0.4c-0.1,0.1-0.4,0.3-0.8,0.4
		s-0.8,0.1-1.2,0.1h-20.8c0-0.5,0.1-0.8,0.3-0.9c0-0.2,0.2-0.5,0.6-0.9c0.4-0.4,0.8-0.8,1.2-1.1s0.8-0.7,1-0.8v-19.7
		c-0.7-0.5-1-1-1-1.5c0-0.3,0.2-0.6,0.7-0.9C616.5,329.8,617,329.6,617.7,329.4z"/>
	<path d="M663.4,328.3H689v2.8l-6.9,6.9c0.1,0.1,0.4,0.2,0.9,0.5s0.8,0.5,1.1,0.8c0.5,0.3,1.1,0.6,1.7,1.1c0.6,0.4,1.2,1,1.7,1.5
		c0.5,0.6,1,1.3,1.3,2c0.3,0.8,0.5,1.7,0.5,2.6c0,0.5-0.1,1.1-0.2,1.8s-0.3,1.4-0.5,1.9s-0.5,1-0.9,1.3c-0.2,0.5-0.8,1.1-1.6,1.7
		s-1.8,1.1-2.7,1.6s-1.5,0.7-1.8,0.7c-1.8,0.2-3.8,0.3-5.9,0.3c-1.2,0-2.3,0-3.3-0.1c-1-0.1-1.8-0.2-2.5-0.4
		c-0.7-0.2-1.1-0.3-1.3-0.5c-1-0.5-1.8-1.1-2.6-2s-1.4-1.8-1.8-2.7s-0.7-1.5-0.7-1.8h2.8c0.1,0.1,0.3,0.5,0.7,0.9s0.7,0.9,1,1.2
		s0.7,0.6,1.2,0.9c1.8,0.4,3.8,0.7,6,0.7c0.9,0,1.8,0,2.7-0.1c0.9-0.1,1.6-0.2,2.1-0.3c0.6-0.1,0.9-0.2,0.9-0.3
		c0.3-0.1,0.6-0.4,0.8-0.8c0.2-0.4,0.4-0.8,0.5-1.3c0.1-0.5,0.2-0.9,0.2-1.3c0-0.2,0-0.3-0.1-0.5c0-0.3,0-0.6-0.1-0.8
		s-0.2-0.5-0.3-0.8s-0.3-0.5-0.3-0.7c-0.1-0.3-0.4-0.6-0.7-0.8c-0.3-0.3-0.7-0.5-1.1-0.8c-0.6-0.4-1.3-0.7-2.1-0.8
		c-0.8-0.2-1.7-0.2-2.7-0.2v-0.9l6.5-6.6v-0.9h-14c0,0.1-0.1,0.3-0.3,0.4s-0.3,0.3-0.4,0.3c0,0-0.1,0.1-0.3,0.2s-0.3,0.1-0.4,0.1
		c-0.2,0-0.4-0.1-0.6-0.4c-0.2-0.3-0.4-0.6-0.6-1.1c-0.1-0.2-0.4-1.1-0.8-2.6S663.4,328.5,663.4,328.3z"/>
</g>
<g>
	<rect x="745.3" y="330.2" class="st13" width="194.4" height="31.7"/>
	<path d="M750.8,331.3c0.3-0.1,0.7-0.2,1.2-0.3c0.5-0.1,1-0.2,1.6-0.3s1.1-0.2,1.4-0.2c0.5-0.1,0.9-0.1,1.1-0.1s0.4,0,0.6-0.1
		c0.3,0,0.5,0,0.6,0.1s0.2,0.3,0.2,0.6c0,0.4,0,0.9-0.1,1.3c-0.1,0.5-0.2,0.9-0.4,1.3s-0.5,0.7-0.8,0.8v17.8h8.2
		c-0.1-0.2-0.1-0.4-0.1-0.6c0-0.1,0-0.2,0-0.3s0-0.3,0.1-0.4s0.1-0.2,0.1-0.3c0.1-0.4,0.2-0.7,0.5-0.9c0.2-0.2,0.5-0.3,0.9-0.4
		c0.3-0.1,0.7-0.1,1-0.1c0.7,0,1.3,0.1,1.7,0.3c0.4,0.2,0.8,0.5,1.1,0.9c0.3,0.4,0.4,0.9,0.6,1.4c0,0.3,0.1,0.8,0.1,1.3s0,1.1,0,1.5
		c0,0.5-0.1,0.9-0.2,1.4c0,0.1-0.1,0.3-0.2,0.4c-0.1,0.2-0.2,0.3-0.3,0.4s-0.2,0.2-0.3,0.4c-0.1,0.1-0.4,0.3-0.8,0.4
		s-0.8,0.1-1.2,0.1h-20.8c0-0.5,0.1-0.8,0.3-0.9c0-0.2,0.2-0.5,0.6-0.9c0.4-0.4,0.8-0.8,1.2-1.1s0.8-0.7,1-0.8v-19.7
		c-0.7-0.5-1-1-1-1.5c0-0.3,0.2-0.6,0.7-0.9C749.6,331.7,750.1,331.5,750.8,331.3z"/>
	<path d="M796,334.7c-1.2,0.1-2.2,0.2-3,0.2c-0.6,0-1,0-1.1-0.1c-0.1,0-0.2-0.1-0.3-0.1s-0.3-0.1-0.4-0.2s-0.2-0.1-0.3-0.1
		c-0.1-0.1-0.5-0.2-1.2-0.4s-1-0.3-1.2-0.3h-10.3v7.2h10.3l-0.2,1.9h-10l0,5.3c0,0.4,0.2,0.9,0.5,1.2c0.3,0.4,0.8,0.6,1.3,0.7
		c0.7,0.1,1.9,0.1,3.4,0.2s2.9,0.1,4.2,0.1c1.4,0,2.3-0.1,2.8-0.2c0.2-0.1,0.4-0.1,0.8-0.2s0.7-0.2,0.9-0.3s0.5-0.2,0.7-0.3
		c0.2-0.1,0.4-0.3,0.6-0.4c0.1-0.1,0.2-0.2,0.5-0.3s0.7-0.2,1.2-0.2c0.8,0,1.7,0.2,2.6,0.5c0.2,0.1,0.3,0.3,0.3,0.5
		c0,0.1-0.1,0.3-0.2,0.5c0,0.1-0.2,0.3-0.4,0.7s-0.4,0.6-0.4,0.7c-0.2,0.5-0.4,0.9-0.4,1.2c0,0.3,0.1,0.6,0.3,0.8
		c0.1,0.2,0.3,0.6,0.7,1.2c0.2,0.2,0.2,0.5,0.2,0.9s-0.1,0.6-0.4,0.8c-0.3,0.3-1,0.6-2,0.8s-2.2,0.3-3.7,0.4s-3,0.1-4.6,0.1
		c-1.7,0-3.3,0-4.9-0.1c-1.6-0.1-3-0.2-4.2-0.3s-1.8-0.2-2-0.3c-1.8-0.8-2.9-1.5-3.4-2.3c-0.3-0.3-0.4-0.7-0.4-1.2
		c0-0.2,0-0.4,0.1-0.5c0-0.1,0.2-0.3,0.4-0.5s0.6-0.4,1-0.5v-21.9h24.1c0,0.3-0.1,0.7-0.3,1.1c-0.6,1.1-1.1,1.9-1.3,2.4
		C796.3,333.9,796.1,334.3,796,334.7z"/>
	<path d="M819.8,329.8c0.8,0,1.5,0.1,2.1,0.2c0.7,0.1,1.2,0.2,1.5,0.4c0.8,0.4,1.4,0.8,1.7,1.1c0.4,0.5,0.7,1.2,0.7,2.1
		c0,0.2-0.2,0.7-0.5,1.5c0,0.1-0.3,0.7-0.8,1.9c-0.5,1.2-1.1,2.6-1.8,4.1c-0.7,1.6-1.2,2.8-1.7,3.9s-0.7,1.7-0.8,1.9
		c-0.2,0.4-0.4,0.9-0.8,1.7s-1,1.9-1.8,3.6c-0.8,1.7-1.5,3-1.8,3.7c-0.4,0.8-0.7,1.5-1,2.1c-0.2,0.4-0.4,0.7-0.5,0.8
		c-0.1,0.1-0.2,0.2-0.3,0.2c-0.1,0-0.2,0-0.3-0.1s-0.2-0.2-0.2-0.3s-0.2-0.3-0.4-0.6c-0.1-0.3-0.5-0.8-1-1.8c-0.5-0.9-1.2-2.1-2-3.5
		c-0.8-1.4-1.5-2.6-2-3.5c-0.5-0.9-1-1.7-1.4-2.5c-0.3-0.6-0.6-1.3-1-2c-0.4-0.8-1-2-1.8-3.7c-0.8-1.7-1.4-3.1-2-4.2
		s-0.9-1.9-1.1-2.3c-0.4-0.9-0.5-1.5-0.5-1.8s0.2-0.6,0.6-0.8c0.2-0.2,0.7-0.4,1.3-0.6s1.3-0.4,2-0.6c0.7-0.2,1.5-0.3,2.3-0.4
		c0.8-0.1,1.4-0.2,1.9-0.2c0.2,0,0.4,0,0.5,0.1s0.2,0.2,0.2,0.4c0,0.3-0.1,0.5-0.2,0.7c-0.1,0.4-0.4,0.7-0.9,0.9
		c-0.6,0.3-0.9,0.9-0.9,1.8c0,0.6,0.1,1.3,0.4,2.1c0.3,0.8,0.6,1.6,0.9,2.4c0.4,0.8,0.5,1.2,0.6,1.3c0.1,0.3,0.5,1.3,1.3,3.1
		c0.7,1.7,1.5,3.3,2.2,4.7c0.7,1.4,1.3,2.2,1.7,2.3c0.4,0,0.8-0.4,1.4-1.3c0.5-0.9,1-1.9,1.5-3c0.5-1.1,1-2.3,1.5-3.7
		c0.5-1.3,0.8-2,0.8-2.1c0.2-0.3,0.4-0.7,0.6-1.3s0.5-1.3,0.7-2.1s0.3-1.5,0.3-2.1c0-0.9-0.2-1.6-0.7-1.9c-0.5-0.3-0.9-0.6-1-1
		c-0.1-0.2-0.1-0.5-0.1-0.8c0-0.3,0.1-0.4,0.2-0.5C819.3,329.9,819.5,329.8,819.8,329.8z"/>
	<path d="M851.5,334.7c-1.2,0.1-2.2,0.2-3,0.2c-0.6,0-1,0-1.1-0.1c-0.1,0-0.2-0.1-0.3-0.1s-0.3-0.1-0.4-0.2s-0.2-0.1-0.3-0.1
		c-0.1-0.1-0.5-0.2-1.2-0.4s-1-0.3-1.2-0.3h-10.3v7.2H844l-0.2,1.9h-10l0,5.3c0,0.4,0.2,0.9,0.5,1.2c0.3,0.4,0.8,0.6,1.3,0.7
		c0.7,0.1,1.9,0.1,3.4,0.2s2.9,0.1,4.2,0.1c1.4,0,2.3-0.1,2.8-0.2c0.2-0.1,0.4-0.1,0.8-0.2s0.7-0.2,0.9-0.3s0.5-0.2,0.7-0.3
		c0.2-0.1,0.4-0.3,0.6-0.4c0.1-0.1,0.2-0.2,0.5-0.3s0.7-0.2,1.2-0.2c0.8,0,1.7,0.2,2.6,0.5c0.2,0.1,0.3,0.3,0.3,0.5
		c0,0.1-0.1,0.3-0.2,0.5c0,0.1-0.2,0.3-0.4,0.7s-0.4,0.6-0.4,0.7c-0.2,0.5-0.4,0.9-0.4,1.2c0,0.3,0.1,0.6,0.3,0.8
		c0.1,0.2,0.3,0.6,0.7,1.2c0.2,0.2,0.2,0.5,0.2,0.9s-0.1,0.6-0.4,0.8c-0.3,0.3-1,0.6-2,0.8s-2.2,0.3-3.7,0.4s-3,0.1-4.6,0.1
		c-1.7,0-3.3,0-4.9-0.1c-1.6-0.1-3-0.2-4.2-0.3s-1.8-0.2-2-0.3c-1.8-0.8-2.9-1.5-3.4-2.3c-0.3-0.3-0.4-0.7-0.4-1.2
		c0-0.2,0-0.4,0.1-0.5c0-0.1,0.2-0.3,0.4-0.5s0.6-0.4,1-0.5v-21.9h24.1c0,0.3-0.1,0.7-0.3,1.1c-0.6,1.1-1.1,1.9-1.3,2.4
		C851.7,333.9,851.6,334.3,851.5,334.7z"/>
	<path d="M860.2,331.3c0.3-0.1,0.7-0.2,1.2-0.3c0.5-0.1,1-0.2,1.6-0.3s1.1-0.2,1.4-0.2c0.5-0.1,0.9-0.1,1.1-0.1s0.4,0,0.6-0.1
		c0.3,0,0.5,0,0.6,0.1s0.2,0.3,0.2,0.6c0,0.4,0,0.9-0.1,1.3c-0.1,0.5-0.2,0.9-0.4,1.3s-0.5,0.7-0.8,0.8v17.8h8.2
		c-0.1-0.2-0.1-0.4-0.1-0.6c0-0.1,0-0.2,0-0.3s0-0.3,0.1-0.4s0.1-0.2,0.1-0.3c0.1-0.4,0.2-0.7,0.5-0.9c0.2-0.2,0.5-0.3,0.9-0.4
		c0.3-0.1,0.7-0.1,1-0.1c0.7,0,1.3,0.1,1.7,0.3c0.4,0.2,0.8,0.5,1.1,0.9c0.3,0.4,0.4,0.9,0.6,1.4c0,0.3,0.1,0.8,0.1,1.3s0,1.1,0,1.5
		c0,0.5-0.1,0.9-0.2,1.4c0,0.1-0.1,0.3-0.2,0.4c-0.1,0.2-0.2,0.3-0.3,0.4s-0.2,0.2-0.3,0.4c-0.1,0.1-0.4,0.3-0.8,0.4
		s-0.8,0.1-1.2,0.1h-20.8c0-0.5,0.1-0.8,0.3-0.9c0-0.2,0.2-0.5,0.6-0.9c0.4-0.4,0.8-0.8,1.2-1.1s0.8-0.7,1-0.8v-19.7
		c-0.7-0.5-1-1-1-1.5c0-0.3,0.2-0.6,0.7-0.9C859,331.7,859.5,331.5,860.2,331.3z"/>
	<path d="M922,345.8c-0.9,0.4-2.5,0.8-4.6,1s-4,0.4-5.7,0.4c-1.7,0.1-2.9,0.1-3.7,0.1c-1.5,0-2.2-0.5-2.2-1.6c0-0.4,0.1-0.9,0.3-1.3
		s0.4-0.7,0.5-0.9c0.8-1.1,1.7-2.3,2.9-3.4s2.4-2.2,3.7-3.2s2.6-1.9,4-2.8c1.4-0.9,2.6-1.6,3.8-2.2c0.1-0.1,0.6-0.2,1.3-0.4
		c0.7-0.2,1.1-0.3,1.1-0.4c0.4-0.2,1.1-0.3,2-0.5c0.9-0.2,1.6-0.2,2.1-0.2c0.8,0,1.2,0.4,1.2,1.1c0,0.5-0.2,0.9-0.6,1.2v8.5
		c0.1,0,0.4-0.1,0.7-0.2c0.4-0.1,0.7-0.2,0.9-0.2c0.5,0,1,0.3,1.3,1c0,0.8-0.4,1.4-1.1,1.7s-1.3,0.5-1.8,0.6v12.3
		c0,0.3-0.3,0.6-0.8,0.9c-0.5,0.3-1.1,0.4-1.7,0.4c-0.7,0-1.2,0-1.5-0.1s-0.6-0.2-0.8-0.3c-0.2-0.2-0.4-0.7-0.6-1.7
		s-0.4-2.2-0.5-3.6c-0.1-1.4-0.2-2.8-0.2-4.2C922,347.3,922,346.6,922,345.8z M922.3,342.3l0.6-6.6c-1.5,0.8-3.4,1.9-5.7,3.3
		c-2.3,1.4-3.7,2.6-4.1,3.4c0,0.1-0.1,0.1-0.1,0.2c0,0.3,0.7,0.5,2,0.5c1,0,2.3-0.1,3.8-0.3C920.5,342.6,921.6,342.5,922.3,342.3z"
		/>
</g>
<g>
</g>
<g>
</g>
<g>
</g>
<g>
</g>
<g>
</g>
<g>
</g>
<g>
</g>
<g>
</g>
<g>
</g>
<g>
</g>
<g>
</g>
<g>
</g>
<g>
</g>
<g>
</g>
<g>
</g>
<g>
</g>
<g>
</g>
<g>
</g>
</svg>
